<svg width="320" height="320" viewBox="0 0 320 320" xmlns="http://www.w3.org/2000/svg" shape-rendering="crispEdges"><rect width="100%" height="100%" fill="#d5d7e1" /><rect width="140" height="10" x="90" y="210" fill="#fffdf2" /><rect width="140" height="10" x="90" y="220" fill="#fffdf2" /><rect width="140" height="10" x="90" y="230" fill="#fffdf2" /><rect width="140" height="10" x="90" y="240" fill="#fffdf2" /><rect width="20" height="10" x="90" y="250" fill="#fffdf2" /><rect width="110" height="10" x="120" y="250" fill="#fffdf2" /><rect width="20" height="10" x="90" y="260" fill="#fffdf2" /><rect width="110" height="10" x="120" y="260" fill="#fffdf2" /><rect width="20" height="10" x="90" y="270" fill="#fffdf2" /><rect width="110" height="10" x="120" y="270" fill="#fffdf2" /><rect width="20" height="10" x="90" y="280" fill="#fffdf2" /><rect width="110" height="10" x="120" y="280" fill="#fffdf2" /><rect width="20" height="10" x="90" y="290" fill="#fffdf2" /><rect width="110" height="10" x="120" y="290" fill="#fffdf2" /><rect width="20" height="10" x="90" y="300" fill="#fffdf2" /><rect width="110" height="10" x="120" y="300" fill="#fffdf2" /><rect width="20" height="10" x="90" y="310" fill="#fffdf2" /><rect width="110" height="10" x="120" y="310" fill="#fffdf2" /><rect width="20" height="10" x="140" y="230" fill="#fa6fe2" /><rect width="10" height="10" x="170" y="230" fill="#fa6fe2" /><rect width="10" height="10" x="140" y="240" fill="#fa6fe2" /><rect width="20" height="10" x="160" y="240" fill="#fa6fe2" /><rect width="20" height="10" x="130" y="260" fill="#fa6fe2" /><rect width="10" height="10" x="160" y="260" fill="#fa6fe2" /><rect width="10" height="10" x="180" y="260" fill="#fa6fe2" /><rect width="20" height="10" x="130" y="270" fill="#fa6fe2" /><rect width="30" height="10" x="160" y="270" fill="#fa6fe2" /><rect width="20" height="10" x="140" y="290" fill="#fa6fe2" /><rect width="10" height="10" x="170" y="290" fill="#fa6fe2" /><rect width="10" height="10" x="140" y="300" fill="#fa6fe2" /><rect width="20" height="10" x="160" y="300" fill="#fa6fe2" /><rect width="40" height="10" x="80" y="60" fill="#000000" /><rect width="30" height="10" x="200" y="60" fill="#000000" /><rect width="40" height="10" x="80" y="70" fill="#000000" /><rect width="30" height="10" x="200" y="70" fill="#000000" /><rect width="50" height="10" x="90" y="80" fill="#fe500c" /><rect width="10" height="10" x="140" y="80" fill="#000000" /><rect width="10" height="10" x="150" y="80" fill="#fe500c" /><rect width="10" height="10" x="160" y="80" fill="#000000" /><rect width="10" height="10" x="170" y="80" fill="#fe500c" /><rect width="10" height="10" x="180" y="80" fill="#000000" /><rect width="40" height="10" x="190" y="80" fill="#fe500c" /><rect width="70" height="10" x="90" y="90" fill="#fe500c" /><rect width="10" height="10" x="160" y="90" fill="#000000" /><rect width="60" height="10" x="170" y="90" fill="#fe500c" /><rect width="20" height="10" x="90" y="100" fill="#fe500c" /><rect width="40" height="10" x="110" y="100" fill="#fffdf4" /><rect width="30" height="10" x="150" y="100" fill="#fe500c" /><rect width="40" height="10" x="180" y="100" fill="#fffdf4" /><rect width="10" height="10" x="220" y="100" fill="#fe500c" /><rect width="20" height="10" x="90" y="110" fill="#fe500c" /><rect width="40" height="10" x="110" y="110" fill="#fffdf4" /><rect width="30" height="10" x="150" y="110" fill="#fe500c" /><rect width="40" height="10" x="180" y="110" fill="#fffdf4" /><rect width="10" height="10" x="220" y="110" fill="#fe500c" /><rect width="20" height="10" x="90" y="120" fill="#fe500c" /><rect width="40" height="10" x="110" y="120" fill="#fffdf4" /><rect width="30" height="10" x="150" y="120" fill="#fe500c" /><rect width="40" height="10" x="180" y="120" fill="#fffdf4" /><rect width="10" height="10" x="220" y="120" fill="#fe500c" /><rect width="20" height="10" x="90" y="130" fill="#fe500c" /><rect width="40" height="10" x="110" y="130" fill="#fffdf4" /><rect width="30" height="10" x="150" y="130" fill="#fe500c" /><rect width="40" height="10" x="180" y="130" fill="#fffdf4" /><rect width="10" height="10" x="220" y="130" fill="#fe500c" /><rect width="30" height="10" x="90" y="140" fill="#fe500c" /><rect width="30" height="10" x="120" y="140" fill="#fffdf4" /><rect width="30" height="10" x="150" y="140" fill="#fe500c" /><rect width="30" height="10" x="180" y="140" fill="#fffdf4" /><rect width="40" height="10" x="210" y="140" fill="#fe500c" /><rect width="30" height="10" x="90" y="150" fill="#000000" /><rect width="30" height="10" x="120" y="150" fill="#fffdf4" /><rect width="30" height="10" x="150" y="150" fill="#fe500c" /><rect width="30" height="10" x="180" y="150" fill="#fffdf4" /><rect width="40" height="10" x="210" y="150" fill="#000000" /><rect width="30" height="10" x="90" y="160" fill="#fe500c" /><rect width="30" height="10" x="120" y="160" fill="#fffdf4" /><rect width="30" height="10" x="150" y="160" fill="#fe500c" /><rect width="30" height="10" x="180" y="160" fill="#fffdf4" /><rect width="40" height="10" x="210" y="160" fill="#fe500c" /><rect width="30" height="10" x="90" y="170" fill="#000000" /><rect width="30" height="10" x="120" y="170" fill="#fffdf4" /><rect width="40" height="10" x="150" y="170" fill="#000000" /><rect width="20" height="10" x="190" y="170" fill="#fffdf4" /><rect width="40" height="10" x="210" y="170" fill="#000000" /><rect width="30" height="10" x="90" y="180" fill="#fe500c" /><rect width="30" height="10" x="120" y="180" fill="#fffdf4" /><rect width="40" height="10" x="150" y="180" fill="#000000" /><rect width="20" height="10" x="190" y="180" fill="#fffdf4" /><rect width="40" height="10" x="210" y="180" fill="#fe500c" /><rect width="30" height="10" x="90" y="190" fill="#000000" /><rect width="10" height="10" x="120" y="190" fill="#fffdf4" /><rect width="20" height="10" x="130" y="190" fill="#000000" /><rect width="60" height="10" x="150" y="190" fill="#fffdf4" /><rect width="40" height="10" x="210" y="190" fill="#000000" /><rect width="30" height="10" x="90" y="200" fill="#fe500c" /><rect width="90" height="10" x="120" y="200" fill="#fffdf4" /><rect width="40" height="10" x="210" y="200" fill="#fe500c" /><rect width="60" height="10" x="100" y="110" fill="#b9185c" /><rect width="60" height="10" x="170" y="110" fill="#b9185c" /><rect width="10" height="10" x="100" y="120" fill="#b9185c" /><rect width="20" height="10" x="110" y="120" fill="#ffffff" /><rect width="20" height="10" x="130" y="120" fill="#000000" /><rect width="10" height="10" x="150" y="120" fill="#b9185c" /><rect width="10" height="10" x="170" y="120" fill="#b9185c" /><rect width="20" height="10" x="180" y="120" fill="#ffffff" /><rect width="20" height="10" x="200" y="120" fill="#000000" /><rect width="10" height="10" x="220" y="120" fill="#b9185c" /><rect width="40" height="10" x="70" y="130" fill="#b9185c" /><rect width="20" height="10" x="110" y="130" fill="#ffffff" /><rect width="20" height="10" x="130" y="130" fill="#000000" /><rect width="30" height="10" x="150" y="130" fill="#b9185c" /><rect width="20" height="10" x="180" y="130" fill="#ffffff" /><rect width="20" height="10" x="200" y="130" fill="#000000" /><rect width="10" height="10" x="220" y="130" fill="#b9185c" /><rect width="10" height="10" x="70" y="140" fill="#b9185c" /><rect width="10" height="10" x="100" y="140" fill="#b9185c" /><rect width="20" height="10" x="110" y="140" fill="#ffffff" /><rect width="20" height="10" x="130" y="140" fill="#000000" /><rect width="10" height="10" x="150" y="140" fill="#b9185c" /><rect width="10" height="10" x="170" y="140" fill="#b9185c" /><rect width="20" height="10" x="180" y="140" fill="#ffffff" /><rect width="20" height="10" x="200" y="140" fill="#000000" /><rect width="10" height="10" x="220" y="140" fill="#b9185c" /><rect width="10" height="10" x="70" y="150" fill="#b9185c" /><rect width="10" height="10" x="100" y="150" fill="#b9185c" /><rect width="20" height="10" x="110" y="150" fill="#ffffff" /><rect width="20" height="10" x="130" y="150" fill="#000000" /><rect width="10" height="10" x="150" y="150" fill="#b9185c" /><rect width="10" height="10" x="170" y="150" fill="#b9185c" /><rect width="20" height="10" x="180" y="150" fill="#ffffff" /><rect width="20" height="10" x="200" y="150" fill="#000000" /><rect width="10" height="10" x="220" y="150" fill="#b9185c" /><rect width="60" height="10" x="100" y="160" fill="#b9185c" /><rect width="60" height="10" x="170" y="160" fill="#b9185c" /></svg>