<svg width="320" height="320" viewBox="0 0 320 320" xmlns="http://www.w3.org/2000/svg" shape-rendering="crispEdges"><rect width="100%" height="100%" fill="#e1d7d5" /><rect width="20" height="10" x="0" y="0" fill="#000000" /><rect width="10" height="10" x="20" y="0" fill="#867c1d" /><rect width="20" height="10" x="30" y="0" fill="#85634f" /><rect width="20" height="10" x="50" y="0" fill="#6b7212" /><rect width="50" height="10" x="70" y="0" fill="#867c1d" /><rect width="20" height="10" x="120" y="0" fill="#8f785e" /><rect width="40" height="10" x="140" y="0" fill="#9d8e6e" /><rect width="10" height="10" x="180" y="0" fill="#a38654" /><rect width="10" height="10" x="190" y="0" fill="#867c1d" /><rect width="10" height="10" x="200" y="0" fill="#4b4949" /><rect width="10" height="10" x="210" y="0" fill="#58565c" /><rect width="40" height="10" x="220" y="0" fill="#4b4949" /><rect width="10" height="10" x="260" y="0" fill="#343235" /><rect width="20" height="10" x="270" y="0" fill="#4b4949" /><rect width="10" height="10" x="290" y="0" fill="#5d6061" /><rect width="10" height="10" x="300" y="0" fill="#343235" /><rect width="10" height="10" x="310" y="0" fill="#554543" /><rect width="10" height="10" x="0" y="10" fill="#a38654" /><rect width="10" height="10" x="10" y="10" fill="#867c1d" /><rect width="10" height="10" x="20" y="10" fill="#6b7212" /><rect width="30" height="10" x="30" y="10" fill="#535a15" /><rect width="20" height="10" x="60" y="10" fill="#6b7212" /><rect width="10" height="10" x="80" y="10" fill="#767c0e" /><rect width="10" height="10" x="90" y="10" fill="#6b7212" /><rect width="20" height="10" x="100" y="10" fill="#867c1d" /><rect width="10" height="10" x="120" y="10" fill="#d19a54" /><rect width="30" height="10" x="130" y="10" fill="#caa26a" /><rect width="10" height="10" x="160" y="10" fill="#cec189" /><rect width="20" height="10" x="170" y="10" fill="#235476" /><rect width="10" height="10" x="190" y="10" fill="#b8ced2" /><rect width="10" height="10" x="200" y="10" fill="#5a423f" /><rect width="10" height="10" x="210" y="10" fill="#58565c" /><rect width="10" height="10" x="220" y="10" fill="#555353" /><rect width="30" height="10" x="230" y="10" fill="#4b4949" /><rect width="10" height="10" x="260" y="10" fill="#343235" /><rect width="20" height="10" x="270" y="10" fill="#4b4949" /><rect width="10" height="10" x="290" y="10" fill="#555353" /><rect width="10" height="10" x="300" y="10" fill="#554543" /><rect width="10" height="10" x="310" y="10" fill="#555353" /><rect width="10" height="10" x="0" y="20" fill="#867c1d" /><rect width="20" height="10" x="10" y="20" fill="#6b7212" /><rect width="20" height="10" x="30" y="20" fill="#85634f" /><rect width="10" height="10" x="50" y="20" fill="#8f785e" /><rect width="10" height="10" x="60" y="20" fill="#535a15" /><rect width="30" height="10" x="70" y="20" fill="#6b7212" /><rect width="10" height="10" x="100" y="20" fill="#867c1d" /><rect width="10" height="10" x="110" y="20" fill="#80a72d" /><rect width="10" height="10" x="120" y="20" fill="#caa26a" /><rect width="10" height="10" x="130" y="20" fill="#cec189" /><rect width="20" height="10" x="140" y="20" fill="#cfc2ab" /><rect width="10" height="10" x="160" y="20" fill="#a19c9a" /><rect width="10" height="10" x="170" y="20" fill="#027c92" /><rect width="10" height="10" x="180" y="20" fill="#235476" /><rect width="10" height="10" x="190" y="20" fill="#62616d" /><rect width="10" height="10" x="200" y="20" fill="#554543" /><rect width="10" height="10" x="210" y="20" fill="#5d6061" /><rect width="10" height="10" x="220" y="20" fill="#555353" /><rect width="60" height="10" x="230" y="20" fill="#4b4949" /><rect width="10" height="10" x="290" y="20" fill="#555353" /><rect width="10" height="10" x="300" y="20" fill="#554543" /><rect width="10" height="10" x="310" y="20" fill="#343235" /><rect width="20" height="10" x="0" y="30" fill="#535a15" /><rect width="10" height="10" x="20" y="30" fill="#85634f" /><rect width="30" height="10" x="30" y="30" fill="#8f785e" /><rect width="10" height="10" x="60" y="30" fill="#535a15" /><rect width="20" height="10" x="70" y="30" fill="#6b7212" /><rect width="20" height="10" x="90" y="30" fill="#85634f" /><rect width="10" height="10" x="110" y="30" fill="#80a72d" /><rect width="10" height="10" x="120" y="30" fill="#cec189" /><rect width="10" height="10" x="130" y="30" fill="#cfc2ab" /><rect width="10" height="10" x="140" y="30" fill="#dcd8d3" /><rect width="10" height="10" x="150" y="30" fill="#76858b" /><rect width="10" height="10" x="160" y="30" fill="#027c92" /><rect width="10" height="10" x="170" y="30" fill="#235476" /><rect width="10" height="10" x="180" y="30" fill="#027c92" /><rect width="10" height="10" x="190" y="30" fill="#769ca9" /><rect width="10" height="10" x="200" y="30" fill="#1e3445" /><rect width="10" height="10" x="210" y="30" fill="#5d6061" /><rect width="20" height="10" x="220" y="30" fill="#555353" /><rect width="60" height="10" x="240" y="30" fill="#4b4949" /><rect width="10" height="10" x="300" y="30" fill="#555353" /><rect width="10" height="10" x="310" y="30" fill="#554543" /><rect width="20" height="10" x="0" y="40" fill="#535a15" /><rect width="10" height="10" x="20" y="40" fill="#6b7212" /><rect width="20" height="10" x="30" y="40" fill="#85634f" /><rect width="10" height="10" x="50" y="40" fill="#535a15" /><rect width="30" height="10" x="60" y="40" fill="#6b7212" /><rect width="10" height="10" x="90" y="40" fill="#876f69" /><rect width="10" height="10" x="100" y="40" fill="#1e3445" /><rect width="10" height="10" x="110" y="40" fill="#027c92" /><rect width="10" height="10" x="120" y="40" fill="#5a6b7b" /><rect width="10" height="10" x="130" y="40" fill="#027c92" /><rect width="10" height="10" x="140" y="40" fill="#235476" /><rect width="10" height="10" x="150" y="40" fill="#fdcef2" /><rect width="10" height="10" x="160" y="40" fill="#67b1e3" /><rect width="10" height="10" x="170" y="40" fill="#027c92" /><rect width="10" height="10" x="180" y="40" fill="#cfc9b8" /><rect width="10" height="10" x="190" y="40" fill="#1e3445" /><rect width="10" height="10" x="200" y="40" fill="#235476" /><rect width="10" height="10" x="210" y="40" fill="#7d635e" /><rect width="10" height="10" x="220" y="40" fill="#58565c" /><rect width="10" height="10" x="230" y="40" fill="#555353" /><rect width="80" height="10" x="240" y="40" fill="#4b4949" /><rect width="100" height="10" x="0" y="50" fill="#535a15" /><rect width="20" height="10" x="100" y="50" fill="#cbc1bc" /><rect width="10" height="10" x="120" y="50" fill="#235476" /><rect width="10" height="10" x="130" y="50" fill="#67b1e3" /><rect width="10" height="10" x="140" y="50" fill="#49b38b" /><rect width="10" height="10" x="150" y="50" fill="#0b5027" /><rect width="10" height="10" x="160" y="50" fill="#343235" /><rect width="10" height="10" x="170" y="50" fill="#cbc1bc" /><rect width="10" height="10" x="180" y="50" fill="#1f1d29" /><rect width="10" height="10" x="190" y="50" fill="#027c92" /><rect width="10" height="10" x="200" y="50" fill="#235476" /><rect width="10" height="10" x="210" y="50" fill="#62616d" /><rect width="10" height="10" x="220" y="50" fill="#58565c" /><rect width="20" height="10" x="230" y="50" fill="#555353" /><rect width="70" height="10" x="250" y="50" fill="#4b4949" /><rect width="90" height="10" x="0" y="60" fill="#535a15" /><rect width="20" height="10" x="90" y="60" fill="#6b7212" /><rect width="10" height="10" x="110" y="60" fill="#62616d" /><rect width="10" height="10" x="120" y="60" fill="#235476" /><rect width="10" height="10" x="130" y="60" fill="#027c92" /><rect width="10" height="10" x="140" y="60" fill="#cfc9b8" /><rect width="10" height="10" x="150" y="60" fill="#c4da53" /><rect width="10" height="10" x="160" y="60" fill="#343235" /><rect width="10" height="10" x="170" y="60" fill="#235476" /><rect width="10" height="10" x="180" y="60" fill="#e5e5de" /><rect width="10" height="10" x="190" y="60" fill="#e8e8e2" /><rect width="10" height="10" x="200" y="60" fill="#1e3445" /><rect width="10" height="10" x="210" y="60" fill="#7d635e" /><rect width="10" height="10" x="220" y="60" fill="#5d6061" /><rect width="20" height="10" x="230" y="60" fill="#555353" /><rect width="70" height="10" x="250" y="60" fill="#4b4949" /><rect width="30" height="10" x="0" y="70" fill="#6b7212" /><rect width="70" height="10" x="30" y="70" fill="#867c1d" /><rect width="20" height="10" x="100" y="70" fill="#80a72d" /><rect width="10" height="10" x="120" y="70" fill="#027c92" /><rect width="10" height="10" x="130" y="70" fill="#49b38b" /><rect width="10" height="10" x="140" y="70" fill="#235476" /><rect width="10" height="10" x="150" y="70" fill="#769ca9" /><rect width="10" height="10" x="160" y="70" fill="#1e3445" /><rect width="10" height="10" x="170" y="70" fill="#2b2834" /><rect width="10" height="10" x="180" y="70" fill="#1e3445" /><rect width="10" height="10" x="190" y="70" fill="#027c92" /><rect width="10" height="10" x="200" y="70" fill="#1f1d29" /><rect width="10" height="10" x="210" y="70" fill="#757576" /><rect width="10" height="10" x="220" y="70" fill="#62616d" /><rect width="10" height="10" x="230" y="70" fill="#58565c" /><rect width="10" height="10" x="240" y="70" fill="#555353" /><rect width="70" height="10" x="250" y="70" fill="#4b4949" /><rect width="10" height="10" x="0" y="80" fill="#8f785e" /><rect width="10" height="10" x="10" y="80" fill="#7e5243" /><rect width="10" height="10" x="20" y="80" fill="#85634f" /><rect width="20" height="10" x="30" y="80" fill="#8f785e" /><rect width="30" height="10" x="50" y="80" fill="#a38654" /><rect width="40" height="10" x="80" y="80" fill="#80a72d" /><rect width="10" height="10" x="120" y="80" fill="#505a5c" /><rect width="10" height="10" x="130" y="80" fill="#71bde4" /><rect width="10" height="10" x="140" y="80" fill="#1f1d29" /><rect width="10" height="10" x="150" y="80" fill="#5a6b7b" /><rect width="10" height="10" x="160" y="80" fill="#769ca9" /><rect width="10" height="10" x="170" y="80" fill="#027c92" /><rect width="10" height="10" x="180" y="80" fill="#67b1e3" /><rect width="10" height="10" x="190" y="80" fill="#4a5358" /><rect width="10" height="10" x="200" y="80" fill="#9cb4b8" /><rect width="10" height="10" x="210" y="80" fill="#757576" /><rect width="10" height="10" x="220" y="80" fill="#62616d" /><rect width="20" height="10" x="230" y="80" fill="#58565c" /><rect width="10" height="10" x="250" y="80" fill="#555353" /><rect width="60" height="10" x="260" y="80" fill="#4b4949" /><rect width="10" height="10" x="0" y="90" fill="#8f785e" /><rect width="20" height="10" x="10" y="90" fill="#7e5243" /><rect width="40" height="10" x="30" y="90" fill="#85634f" /><rect width="10" height="10" x="70" y="90" fill="#867c1d" /><rect width="40" height="10" x="80" y="90" fill="#a38654" /><rect width="10" height="10" x="120" y="90" fill="#80a72d" /><rect width="10" height="10" x="130" y="90" fill="#c4da53" /><rect width="20" height="10" x="140" y="90" fill="#535a15" /><rect width="10" height="10" x="160" y="90" fill="#1e3445" /><rect width="10" height="10" x="170" y="90" fill="#0b5027" /><rect width="10" height="10" x="180" y="90" fill="#b8ced2" /><rect width="10" height="10" x="190" y="90" fill="#d7d3cd" /><rect width="10" height="10" x="200" y="90" fill="#abaaa8" /><rect width="10" height="10" x="210" y="90" fill="#757576" /><rect width="10" height="10" x="220" y="90" fill="#62616d" /><rect width="10" height="10" x="230" y="90" fill="#5d6061" /><rect width="10" height="10" x="240" y="90" fill="#58565c" /><rect width="10" height="10" x="250" y="90" fill="#555353" /><rect width="60" height="10" x="260" y="90" fill="#4b4949" /><rect width="10" height="10" x="0" y="100" fill="#5a423f" /><rect width="10" height="10" x="10" y="100" fill="#554543" /><rect width="10" height="10" x="20" y="100" fill="#555353" /><rect width="10" height="10" x="30" y="100" fill="#554543" /><rect width="60" height="10" x="40" y="100" fill="#85634f" /><rect width="20" height="10" x="100" y="100" fill="#a38654" /><rect width="30" height="10" x="120" y="100" fill="#caa26a" /><rect width="20" height="10" x="150" y="100" fill="#80a72d" /><rect width="20" height="10" x="170" y="100" fill="#027c92" /><rect width="10" height="10" x="190" y="100" fill="#b2a8a5" /><rect width="10" height="10" x="200" y="100" fill="#abaaa8" /><rect width="10" height="10" x="210" y="100" fill="#757576" /><rect width="10" height="10" x="220" y="100" fill="#62616d" /><rect width="10" height="10" x="230" y="100" fill="#5d6061" /><rect width="10" height="10" x="240" y="100" fill="#58565c" /><rect width="10" height="10" x="250" y="100" fill="#555353" /><rect width="60" height="10" x="260" y="100" fill="#4b4949" /><rect width="30" height="10" x="0" y="110" fill="#535a15" /><rect width="10" height="10" x="30" y="110" fill="#5a423f" /><rect width="10" height="10" x="40" y="110" fill="#85634f" /><rect width="30" height="10" x="50" y="110" fill="#8f785e" /><rect width="10" height="10" x="80" y="110" fill="#85634f" /><rect width="10" height="10" x="90" y="110" fill="#9d8e6e" /><rect width="40" height="10" x="100" y="110" fill="#cec189" /><rect width="10" height="10" x="140" y="110" fill="#9d8e6e" /><rect width="10" height="10" x="150" y="110" fill="#a38654" /><rect width="10" height="10" x="160" y="110" fill="#867c1d" /><rect width="10" height="10" x="170" y="110" fill="#85634f" /><rect width="10" height="10" x="180" y="110" fill="#4d271b" /><rect width="10" height="10" x="190" y="110" fill="#1f1d29" /><rect width="10" height="10" x="200" y="110" fill="#76858b" /><rect width="10" height="10" x="210" y="110" fill="#757576" /><rect width="10" height="10" x="220" y="110" fill="#62616d" /><rect width="10" height="10" x="230" y="110" fill="#5d6061" /><rect width="10" height="10" x="240" y="110" fill="#58565c" /><rect width="10" height="10" x="250" y="110" fill="#555353" /><rect width="60" height="10" x="260" y="110" fill="#4b4949" /><rect width="30" height="10" x="0" y="120" fill="#535a15" /><rect width="30" height="10" x="30" y="120" fill="#85634f" /><rect width="10" height="10" x="60" y="120" fill="#867c1d" /><rect width="10" height="10" x="70" y="120" fill="#85634f" /><rect width="10" height="10" x="80" y="120" fill="#6b7212" /><rect width="10" height="10" x="90" y="120" fill="#8f785e" /><rect width="10" height="10" x="100" y="120" fill="#caa26a" /><rect width="20" height="10" x="110" y="120" fill="#cec189" /><rect width="10" height="10" x="130" y="120" fill="#caa26a" /><rect width="10" height="10" x="140" y="120" fill="#a38654" /><rect width="20" height="10" x="150" y="120" fill="#867c1d" /><rect width="10" height="10" x="170" y="120" fill="#85634f" /><rect width="10" height="10" x="180" y="120" fill="#ff0e0e" /><rect width="10" height="10" x="190" y="120" fill="#903707" /><rect width="10" height="10" x="200" y="120" fill="#235476" /><rect width="10" height="10" x="210" y="120" fill="#876f69" /><rect width="20" height="10" x="220" y="120" fill="#62616d" /><rect width="10" height="10" x="240" y="120" fill="#58565c" /><rect width="10" height="10" x="250" y="120" fill="#555353" /><rect width="60" height="10" x="260" y="120" fill="#4b4949" /><rect width="90" height="10" x="0" y="130" fill="#535a15" /><rect width="10" height="10" x="90" y="130" fill="#6b7212" /><rect width="10" height="10" x="100" y="130" fill="#85634f" /><rect width="10" height="10" x="110" y="130" fill="#a38654" /><rect width="20" height="10" x="120" y="130" fill="#9d8e6e" /><rect width="10" height="10" x="140" y="130" fill="#8f785e" /><rect width="10" height="10" x="150" y="130" fill="#a38654" /><rect width="10" height="10" x="160" y="130" fill="#c5030e" /><rect width="10" height="10" x="170" y="130" fill="#ff0e0e" /><rect width="10" height="10" x="180" y="130" fill="#4d271b" /><rect width="10" height="10" x="190" y="130" fill="#e8e8e2" /><rect width="10" height="10" x="200" y="130" fill="#6e3206" /><rect width="10" height="10" x="210" y="130" fill="#5d6061" /><rect width="10" height="10" x="220" y="130" fill="#757576" /><rect width="10" height="10" x="230" y="130" fill="#62616d" /><rect width="10" height="10" x="240" y="130" fill="#58565c" /><rect width="10" height="10" x="250" y="130" fill="#555353" /><rect width="60" height="10" x="260" y="130" fill="#4b4949" /><rect width="10" height="10" x="0" y="140" fill="#6b7212" /><rect width="80" height="10" x="10" y="140" fill="#535a15" /><rect width="10" height="10" x="90" y="140" fill="#867c1d" /><rect width="10" height="10" x="100" y="140" fill="#6e3206" /><rect width="10" height="10" x="110" y="140" fill="#ff0e0e" /><rect width="10" height="10" x="120" y="140" fill="#c5030e" /><rect width="10" height="10" x="130" y="140" fill="#4d271b" /><rect width="10" height="10" x="140" y="140" fill="#903707" /><rect width="10" height="10" x="150" y="140" fill="#c16710" /><rect width="10" height="10" x="160" y="140" fill="#c5030e" /><rect width="10" height="10" x="170" y="140" fill="#ff0e0e" /><rect width="10" height="10" x="180" y="140" fill="#d4b7b2" /><rect width="10" height="10" x="190" y="140" fill="#4a5358" /><rect width="10" height="10" x="200" y="140" fill="#4d271b" /><rect width="10" height="10" x="210" y="140" fill="#552e05" /><rect width="10" height="10" x="220" y="140" fill="#876f69" /><rect width="10" height="10" x="230" y="140" fill="#62616d" /><rect width="20" height="10" x="240" y="140" fill="#58565c" /><rect width="60" height="10" x="260" y="140" fill="#4b4949" /><rect width="70" height="10" x="0" y="150" fill="#535a15" /><rect width="20" height="10" x="70" y="150" fill="#6b7212" /><rect width="10" height="10" x="90" y="150" fill="#85634f" /><rect width="10" height="10" x="100" y="150" fill="#7e5243" /><rect width="10" height="10" x="110" y="150" fill="#d08b11" /><rect width="10" height="10" x="120" y="150" fill="#b87b11" /><rect width="10" height="10" x="130" y="150" fill="#552e05" /><rect width="10" height="10" x="140" y="150" fill="#eff2fa" /><rect width="10" height="10" x="150" y="150" fill="#a86f60" /><rect width="10" height="10" x="160" y="150" fill="#d32a09" /><rect width="10" height="10" x="170" y="150" fill="#6e3206" /><rect width="10" height="10" x="180" y="150" fill="#807f7e" /><rect width="10" height="10" x="190" y="150" fill="#555353" /><rect width="10" height="10" x="200" y="150" fill="#c5030e" /><rect width="10" height="10" x="210" y="150" fill="#4d271b" /><rect width="10" height="10" x="220" y="150" fill="#757576" /><rect width="10" height="10" x="230" y="150" fill="#62616d" /><rect width="10" height="10" x="240" y="150" fill="#5d6061" /><rect width="10" height="10" x="250" y="150" fill="#58565c" /><rect width="60" height="10" x="260" y="150" fill="#4b4949" /><rect width="20" height="10" x="0" y="160" fill="#535a15" /><rect width="10" height="10" x="20" y="160" fill="#6b7212" /><rect width="50" height="10" x="30" y="160" fill="#535a15" /><rect width="10" height="10" x="80" y="160" fill="#555353" /><rect width="10" height="10" x="90" y="160" fill="#7d635e" /><rect width="10" height="10" x="100" y="160" fill="#8f785e" /><rect width="10" height="10" x="110" y="160" fill="#876f69" /><rect width="10" height="10" x="120" y="160" fill="#903707" /><rect width="10" height="10" x="130" y="160" fill="#5d6061" /><rect width="10" height="10" x="140" y="160" fill="#a19c9a" /><rect width="10" height="10" x="150" y="160" fill="#027c92" /><rect width="10" height="10" x="160" y="160" fill="#6e3206" /><rect width="10" height="10" x="170" y="160" fill="#e4a499" /><rect width="10" height="10" x="180" y="160" fill="#4d271b" /><rect width="10" height="10" x="190" y="160" fill="#fde7f5" /><rect width="10" height="10" x="200" y="160" fill="#cbc1bc" /><rect width="10" height="10" x="210" y="160" fill="#7d635e" /><rect width="10" height="10" x="220" y="160" fill="#757576" /><rect width="10" height="10" x="230" y="160" fill="#62616d" /><rect width="10" height="10" x="240" y="160" fill="#5d6061" /><rect width="10" height="10" x="250" y="160" fill="#58565c" /><rect width="10" height="10" x="260" y="160" fill="#4b4949" /><rect width="20" height="10" x="270" y="160" fill="#555353" /><rect width="30" height="10" x="290" y="160" fill="#4b4949" /><rect width="50" height="10" x="0" y="170" fill="#535a15" /><rect width="20" height="10" x="50" y="170" fill="#6b7212" /><rect width="10" height="10" x="70" y="170" fill="#555353" /><rect width="20" height="10" x="80" y="170" fill="#5d6061" /><rect width="10" height="10" x="100" y="170" fill="#757576" /><rect width="10" height="10" x="110" y="170" fill="#807f7e" /><rect width="40" height="10" x="120" y="170" fill="#ff0e0e" /><rect width="10" height="10" x="160" y="170" fill="#e2c8c0" /><rect width="10" height="10" x="170" y="170" fill="#e8e8e2" /><rect width="20" height="10" x="180" y="170" fill="#76858b" /><rect width="10" height="10" x="200" y="170" fill="#caeff9" /><rect width="10" height="10" x="210" y="170" fill="#554543" /><rect width="10" height="10" x="220" y="170" fill="#757576" /><rect width="10" height="10" x="230" y="170" fill="#62616d" /><rect width="10" height="10" x="240" y="170" fill="#5d6061" /><rect width="10" height="10" x="250" y="170" fill="#58565c" /><rect width="10" height="10" x="260" y="170" fill="#4b4949" /><rect width="50" height="10" x="270" y="170" fill="#555353" /><rect width="60" height="10" x="0" y="180" fill="#6b7212" /><rect width="40" height="10" x="60" y="180" fill="#85634f" /><rect width="10" height="10" x="100" y="180" fill="#876f69" /><rect width="10" height="10" x="110" y="180" fill="#807f7e" /><rect width="10" height="10" x="120" y="180" fill="#c5030e" /><rect width="10" height="10" x="130" y="180" fill="#ff0e0e" /><rect width="10" height="10" x="140" y="180" fill="#c5030e" /><rect width="10" height="10" x="150" y="180" fill="#6e3206" /><rect width="10" height="10" x="160" y="180" fill="#e8e8e2" /><rect width="10" height="10" x="170" y="180" fill="#f5fcff" /><rect width="20" height="10" x="180" y="180" fill="#fdf8ff" /><rect width="10" height="10" x="200" y="180" fill="#e5e5de" /><rect width="10" height="10" x="210" y="180" fill="#4d271b" /><rect width="10" height="10" x="220" y="180" fill="#757576" /><rect width="10" height="10" x="230" y="180" fill="#62616d" /><rect width="10" height="10" x="240" y="180" fill="#5d6061" /><rect width="10" height="10" x="250" y="180" fill="#58565c" /><rect width="10" height="10" x="260" y="180" fill="#4b4949" /><rect width="50" height="10" x="270" y="180" fill="#555353" /><rect width="30" height="10" x="0" y="190" fill="#6b7212" /><rect width="10" height="10" x="30" y="190" fill="#535a15" /><rect width="20" height="10" x="40" y="190" fill="#6b7212" /><rect width="10" height="10" x="60" y="190" fill="#867c1d" /><rect width="10" height="10" x="70" y="190" fill="#85634f" /><rect width="20" height="10" x="80" y="190" fill="#8f785e" /><rect width="10" height="10" x="100" y="190" fill="#9d8e6e" /><rect width="10" height="10" x="110" y="190" fill="#cbc1bc" /><rect width="10" height="10" x="120" y="190" fill="#e8e8e2" /><rect width="10" height="10" x="130" y="190" fill="#fff0ee" /><rect width="10" height="10" x="140" y="190" fill="#85634f" /><rect width="10" height="10" x="150" y="190" fill="#867c1d" /><rect width="10" height="10" x="160" y="190" fill="#554543" /><rect width="10" height="10" x="170" y="190" fill="#f86100" /><rect width="10" height="10" x="180" y="190" fill="#fffdf4" /><rect width="10" height="10" x="190" y="190" fill="#eff2fa" /><rect width="10" height="10" x="200" y="190" fill="#caeff9" /><rect width="10" height="10" x="210" y="190" fill="#2b2834" /><rect width="10" height="10" x="220" y="190" fill="#757576" /><rect width="20" height="10" x="230" y="190" fill="#62616d" /><rect width="10" height="10" x="250" y="190" fill="#58565c" /><rect width="10" height="10" x="260" y="190" fill="#4b4949" /><rect width="10" height="10" x="270" y="190" fill="#58565c" /><rect width="40" height="10" x="280" y="190" fill="#555353" /><rect width="30" height="10" x="0" y="200" fill="#6b7212" /><rect width="10" height="10" x="30" y="200" fill="#535a15" /><rect width="20" height="10" x="40" y="200" fill="#6b7212" /><rect width="10" height="10" x="60" y="200" fill="#867c1d" /><rect width="30" height="10" x="70" y="200" fill="#85634f" /><rect width="10" height="10" x="100" y="200" fill="#807f7e" /><rect width="10" height="10" x="110" y="200" fill="#abaaa8" /><rect width="10" height="10" x="120" y="200" fill="#e8e8e2" /><rect width="30" height="10" x="130" y="200" fill="#eff2fa" /><rect width="10" height="10" x="160" y="200" fill="#e8e8e2" /><rect width="10" height="10" x="170" y="200" fill="#b92b3c" /><rect width="10" height="10" x="180" y="200" fill="#fe500c" /><rect width="10" height="10" x="190" y="200" fill="#9f4b27" /><rect width="10" height="10" x="200" y="200" fill="#eff2fa" /><rect width="10" height="10" x="210" y="200" fill="#343235" /><rect width="10" height="10" x="220" y="200" fill="#757576" /><rect width="20" height="10" x="230" y="200" fill="#62616d" /><rect width="10" height="10" x="250" y="200" fill="#58565c" /><rect width="10" height="10" x="260" y="200" fill="#4b4949" /><rect width="10" height="10" x="270" y="200" fill="#58565c" /><rect width="40" height="10" x="280" y="200" fill="#555353" /><rect width="40" height="10" x="0" y="210" fill="#85634f" /><rect width="10" height="10" x="40" y="210" fill="#5d6061" /><rect width="20" height="10" x="50" y="210" fill="#555353" /><rect width="10" height="10" x="70" y="210" fill="#7e5243" /><rect width="10" height="10" x="80" y="210" fill="#555353" /><rect width="10" height="10" x="90" y="210" fill="#85634f" /><rect width="10" height="10" x="100" y="210" fill="#7d635e" /><rect width="10" height="10" x="110" y="210" fill="#807f7e" /><rect width="10" height="10" x="120" y="210" fill="#aaa6a4" /><rect width="20" height="10" x="130" y="210" fill="#cbc1bc" /><rect width="10" height="10" x="150" y="210" fill="#d7d3cd" /><rect width="10" height="10" x="160" y="210" fill="#d8dadf" /><rect width="10" height="10" x="170" y="210" fill="#909b0e" /><rect width="10" height="10" x="180" y="210" fill="#535a15" /><rect width="10" height="10" x="190" y="210" fill="#1f1d29" /><rect width="10" height="10" x="200" y="210" fill="#552d1d" /><rect width="10" height="10" x="210" y="210" fill="#343235" /><rect width="10" height="10" x="220" y="210" fill="#757576" /><rect width="20" height="10" x="230" y="210" fill="#62616d" /><rect width="10" height="10" x="250" y="210" fill="#58565c" /><rect width="10" height="10" x="260" y="210" fill="#555353" /><rect width="30" height="10" x="270" y="210" fill="#58565c" /><rect width="10" height="10" x="300" y="210" fill="#555353" /><rect width="10" height="10" x="310" y="210" fill="#58565c" /><rect width="10" height="10" x="0" y="220" fill="#8f785e" /><rect width="10" height="10" x="10" y="220" fill="#85634f" /><rect width="40" height="10" x="20" y="220" fill="#7d635e" /><rect width="10" height="10" x="60" y="220" fill="#555353" /><rect width="10" height="10" x="70" y="220" fill="#554543" /><rect width="30" height="10" x="80" y="220" fill="#535a15" /><rect width="10" height="10" x="110" y="220" fill="#555353" /><rect width="10" height="10" x="120" y="220" fill="#757576" /><rect width="10" height="10" x="130" y="220" fill="#555353" /><rect width="20" height="10" x="140" y="220" fill="#807f7e" /><rect width="10" height="10" x="160" y="220" fill="#757576" /><rect width="20" height="10" x="170" y="220" fill="#b19e00" /><rect width="10" height="10" x="190" y="220" fill="#0b5027" /><rect width="10" height="10" x="200" y="220" fill="#552d1d" /><rect width="10" height="10" x="210" y="220" fill="#4a5358" /><rect width="10" height="10" x="220" y="220" fill="#757576" /><rect width="20" height="10" x="230" y="220" fill="#62616d" /><rect width="10" height="10" x="250" y="220" fill="#58565c" /><rect width="10" height="10" x="260" y="220" fill="#555353" /><rect width="50" height="10" x="270" y="220" fill="#58565c" /><rect width="10" height="10" x="0" y="230" fill="#9d8e6e" /><rect width="10" height="10" x="10" y="230" fill="#8f785e" /><rect width="10" height="10" x="20" y="230" fill="#7d635e" /><rect width="10" height="10" x="30" y="230" fill="#555353" /><rect width="10" height="10" x="40" y="230" fill="#5d6061" /><rect width="10" height="10" x="50" y="230" fill="#4d271b" /><rect width="20" height="10" x="60" y="230" fill="#554543" /><rect width="50" height="10" x="80" y="230" fill="#535a15" /><rect width="20" height="10" x="130" y="230" fill="#5d6061" /><rect width="10" height="10" x="150" y="230" fill="#8f785e" /><rect width="10" height="10" x="160" y="230" fill="#552e05" /><rect width="10" height="10" x="170" y="230" fill="#b19e00" /><rect width="10" height="10" x="180" y="230" fill="#000000" /><rect width="20" height="10" x="190" y="230" fill="#0b5027" /><rect width="10" height="10" x="210" y="230" fill="#807f7e" /><rect width="10" height="10" x="220" y="230" fill="#757576" /><rect width="20" height="10" x="230" y="230" fill="#62616d" /><rect width="10" height="10" x="250" y="230" fill="#58565c" /><rect width="10" height="10" x="260" y="230" fill="#555353" /><rect width="50" height="10" x="270" y="230" fill="#58565c" /><rect width="20" height="10" x="0" y="240" fill="#9d8e6e" /><rect width="10" height="10" x="20" y="240" fill="#555353" /><rect width="10" height="10" x="30" y="240" fill="#554543" /><rect width="10" height="10" x="40" y="240" fill="#4b4949" /><rect width="10" height="10" x="50" y="240" fill="#1f1d29" /><rect width="10" height="10" x="60" y="240" fill="#554543" /><rect width="10" height="10" x="70" y="240" fill="#7e5243" /><rect width="10" height="10" x="80" y="240" fill="#5d6061" /><rect width="10" height="10" x="90" y="240" fill="#000000" /><rect width="10" height="10" x="100" y="240" fill="#552e05" /><rect width="10" height="10" x="110" y="240" fill="#6b7212" /><rect width="10" height="10" x="120" y="240" fill="#757576" /><rect width="20" height="10" x="130" y="240" fill="#0b5027" /><rect width="10" height="10" x="150" y="240" fill="#535a15" /><rect width="10" height="10" x="160" y="240" fill="#eedc00" /><rect width="20" height="10" x="170" y="240" fill="#a19c9a" /><rect width="10" height="10" x="190" y="240" fill="#5d6061" /><rect width="10" height="10" x="200" y="240" fill="#535a15" /><rect width="10" height="10" x="210" y="240" fill="#76858b" /><rect width="10" height="10" x="220" y="240" fill="#757576" /><rect width="20" height="10" x="230" y="240" fill="#62616d" /><rect width="10" height="10" x="250" y="240" fill="#5d6061" /><rect width="10" height="10" x="260" y="240" fill="#555353" /><rect width="50" height="10" x="270" y="240" fill="#58565c" /><rect width="10" height="10" x="0" y="250" fill="#8f785e" /><rect width="10" height="10" x="10" y="250" fill="#554543" /><rect width="10" height="10" x="20" y="250" fill="#807f7e" /><rect width="10" height="10" x="30" y="250" fill="#5d6061" /><rect width="10" height="10" x="40" y="250" fill="#535a15" /><rect width="10" height="10" x="50" y="250" fill="#554543" /><rect width="10" height="10" x="60" y="250" fill="#555353" /><rect width="10" height="10" x="70" y="250" fill="#5d6061" /><rect width="10" height="10" x="80" y="250" fill="#555353" /><rect width="10" height="10" x="90" y="250" fill="#7d635e" /><rect width="30" height="10" x="100" y="250" fill="#0b5027" /><rect width="10" height="10" x="130" y="250" fill="#9d8e6e" /><rect width="10" height="10" x="140" y="250" fill="#535a15" /><rect width="10" height="10" x="150" y="250" fill="#7e5243" /><rect width="10" height="10" x="160" y="250" fill="#867c1d" /><rect width="10" height="10" x="170" y="250" fill="#b2958d" /><rect width="10" height="10" x="180" y="250" fill="#4b4949" /><rect width="10" height="10" x="190" y="250" fill="#909b0e" /><rect width="10" height="10" x="200" y="250" fill="#535a15" /><rect width="20" height="10" x="210" y="250" fill="#807f7e" /><rect width="20" height="10" x="230" y="250" fill="#62616d" /><rect width="10" height="10" x="250" y="250" fill="#5d6061" /><rect width="10" height="10" x="260" y="250" fill="#555353" /><rect width="40" height="10" x="270" y="250" fill="#58565c" /><rect width="10" height="10" x="310" y="250" fill="#5d6061" /><rect width="10" height="10" x="0" y="260" fill="#7d635e" /><rect width="10" height="10" x="10" y="260" fill="#554543" /><rect width="10" height="10" x="20" y="260" fill="#7d635e" /><rect width="10" height="10" x="30" y="260" fill="#555353" /><rect width="10" height="10" x="40" y="260" fill="#1f1d29" /><rect width="10" height="10" x="50" y="260" fill="#554543" /><rect width="10" height="10" x="60" y="260" fill="#555353" /><rect width="10" height="10" x="70" y="260" fill="#554543" /><rect width="20" height="10" x="80" y="260" fill="#7d635e" /><rect width="10" height="10" x="100" y="260" fill="#555353" /><rect width="10" height="10" x="110" y="260" fill="#0b5027" /><rect width="10" height="10" x="120" y="260" fill="#4b4949" /><rect width="10" height="10" x="130" y="260" fill="#757576" /><rect width="10" height="10" x="140" y="260" fill="#49b38b" /><rect width="10" height="10" x="150" y="260" fill="#343235" /><rect width="10" height="10" x="160" y="260" fill="#e2c8c0" /><rect width="10" height="10" x="170" y="260" fill="#e4a499" /><rect width="10" height="10" x="180" y="260" fill="#9cb4b8" /><rect width="10" height="10" x="190" y="260" fill="#343235" /><rect width="10" height="10" x="200" y="260" fill="#5a6b7b" /><rect width="10" height="10" x="210" y="260" fill="#76858b" /><rect width="10" height="10" x="220" y="260" fill="#807f7e" /><rect width="20" height="10" x="230" y="260" fill="#62616d" /><rect width="10" height="10" x="250" y="260" fill="#5d6061" /><rect width="10" height="10" x="260" y="260" fill="#555353" /><rect width="50" height="10" x="270" y="260" fill="#5d6061" /><rect width="10" height="10" x="0" y="270" fill="#535a15" /><rect width="10" height="10" x="10" y="270" fill="#4d271b" /><rect width="10" height="10" x="20" y="270" fill="#555353" /><rect width="10" height="10" x="30" y="270" fill="#535a15" /><rect width="10" height="10" x="40" y="270" fill="#343235" /><rect width="10" height="10" x="50" y="270" fill="#554543" /><rect width="10" height="10" x="60" y="270" fill="#535a15" /><rect width="20" height="10" x="70" y="270" fill="#555353" /><rect width="10" height="10" x="90" y="270" fill="#7d635e" /><rect width="20" height="10" x="100" y="270" fill="#5d6061" /><rect width="20" height="10" x="120" y="270" fill="#909b0e" /><rect width="10" height="10" x="140" y="270" fill="#e9ba12" /><rect width="10" height="10" x="150" y="270" fill="#535a15" /><rect width="30" height="10" x="160" y="270" fill="#a19c9a" /><rect width="10" height="10" x="190" y="270" fill="#5a6b7b" /><rect width="10" height="10" x="200" y="270" fill="#1f1d29" /><rect width="10" height="10" x="210" y="270" fill="#76858b" /><rect width="10" height="10" x="220" y="270" fill="#757576" /><rect width="20" height="10" x="230" y="270" fill="#62616d" /><rect width="10" height="10" x="250" y="270" fill="#5d6061" /><rect width="10" height="10" x="260" y="270" fill="#58565c" /><rect width="50" height="10" x="270" y="270" fill="#5d6061" /><rect width="10" height="10" x="0" y="280" fill="#555353" /><rect width="20" height="10" x="10" y="280" fill="#535a15" /><rect width="10" height="10" x="30" y="280" fill="#555353" /><rect width="20" height="10" x="40" y="280" fill="#535a15" /><rect width="30" height="10" x="60" y="280" fill="#554543" /><rect width="10" height="10" x="90" y="280" fill="#555353" /><rect width="10" height="10" x="100" y="280" fill="#7d635e" /><rect width="10" height="10" x="110" y="280" fill="#8f785e" /><rect width="20" height="10" x="120" y="280" fill="#909b0e" /><rect width="10" height="10" x="140" y="280" fill="#535a15" /><rect width="10" height="10" x="150" y="280" fill="#807f7e" /><rect width="10" height="10" x="160" y="280" fill="#76858b" /><rect width="10" height="10" x="170" y="280" fill="#a19c9a" /><rect width="10" height="10" x="180" y="280" fill="#76858b" /><rect width="10" height="10" x="190" y="280" fill="#5a6b7b" /><rect width="10" height="10" x="200" y="280" fill="#62616d" /><rect width="10" height="10" x="210" y="280" fill="#807f7e" /><rect width="10" height="10" x="220" y="280" fill="#757576" /><rect width="20" height="10" x="230" y="280" fill="#62616d" /><rect width="10" height="10" x="250" y="280" fill="#5d6061" /><rect width="10" height="10" x="260" y="280" fill="#58565c" /><rect width="10" height="10" x="270" y="280" fill="#62616d" /><rect width="10" height="10" x="280" y="280" fill="#5d6061" /><rect width="20" height="10" x="290" y="280" fill="#62616d" /><rect width="10" height="10" x="310" y="280" fill="#5d6061" /><rect width="10" height="10" x="0" y="290" fill="#552e05" /><rect width="20" height="10" x="10" y="290" fill="#535a15" /><rect width="10" height="10" x="30" y="290" fill="#1f1d29" /><rect width="10" height="10" x="40" y="290" fill="#5d6061" /><rect width="10" height="10" x="50" y="290" fill="#555353" /><rect width="10" height="10" x="60" y="290" fill="#554543" /><rect width="10" height="10" x="70" y="290" fill="#343235" /><rect width="10" height="10" x="80" y="290" fill="#535a15" /><rect width="10" height="10" x="90" y="290" fill="#4b4949" /><rect width="10" height="10" x="100" y="290" fill="#5d6061" /><rect width="10" height="10" x="110" y="290" fill="#876f69" /><rect width="10" height="10" x="120" y="290" fill="#9d8e6e" /><rect width="40" height="10" x="130" y="290" fill="#0b5027" /><rect width="10" height="10" x="170" y="290" fill="#4b4949" /><rect width="50" height="10" x="180" y="290" fill="#757576" /><rect width="20" height="10" x="230" y="290" fill="#62616d" /><rect width="10" height="10" x="250" y="290" fill="#5d6061" /><rect width="10" height="10" x="260" y="290" fill="#58565c" /><rect width="50" height="10" x="270" y="290" fill="#62616d" /><rect width="10" height="10" x="0" y="300" fill="#4d271b" /><rect width="10" height="10" x="10" y="300" fill="#85634f" /><rect width="20" height="10" x="20" y="300" fill="#4d271b" /><rect width="10" height="10" x="40" y="300" fill="#8f785e" /><rect width="10" height="10" x="50" y="300" fill="#554543" /><rect width="10" height="10" x="60" y="300" fill="#4b4949" /><rect width="30" height="10" x="70" y="300" fill="#554543" /><rect width="10" height="10" x="100" y="300" fill="#85634f" /><rect width="10" height="10" x="110" y="300" fill="#7d635e" /><rect width="10" height="10" x="120" y="300" fill="#9d8e6e" /><rect width="10" height="10" x="130" y="300" fill="#a19c9a" /><rect width="10" height="10" x="140" y="300" fill="#cfc2ab" /><rect width="10" height="10" x="150" y="300" fill="#d6c3be" /><rect width="10" height="10" x="160" y="300" fill="#4a5358" /><rect width="20" height="10" x="170" y="300" fill="#0b5027" /><rect width="10" height="10" x="190" y="300" fill="#757576" /><rect width="10" height="10" x="200" y="300" fill="#5d6061" /><rect width="10" height="10" x="210" y="300" fill="#757576" /><rect width="30" height="10" x="220" y="300" fill="#62616d" /><rect width="10" height="10" x="250" y="300" fill="#5d6061" /><rect width="10" height="10" x="260" y="300" fill="#58565c" /><rect width="50" height="10" x="270" y="300" fill="#62616d" /><rect width="10" height="10" x="0" y="310" fill="#000000" /><rect width="10" height="10" x="10" y="310" fill="#7e5243" /><rect width="10" height="10" x="20" y="310" fill="#5a423f" /><rect width="10" height="10" x="30" y="310" fill="#8f785e" /><rect width="10" height="10" x="40" y="310" fill="#85634f" /><rect width="10" height="10" x="50" y="310" fill="#555353" /><rect width="10" height="10" x="60" y="310" fill="#5d6061" /><rect width="20" height="10" x="70" y="310" fill="#7d635e" /><rect width="10" height="10" x="90" y="310" fill="#5d6061" /><rect width="10" height="10" x="100" y="310" fill="#555353" /><rect width="10" height="10" x="110" y="310" fill="#876f69" /><rect width="10" height="10" x="120" y="310" fill="#807f7e" /><rect width="30" height="10" x="130" y="310" fill="#a19c9a" /><rect width="10" height="10" x="160" y="310" fill="#c5b9a1" /><rect width="10" height="10" x="170" y="310" fill="#cbc1bc" /><rect width="20" height="10" x="180" y="310" fill="#0b5027" /><rect width="10" height="10" x="200" y="310" fill="#2b2834" /><rect width="30" height="10" x="210" y="310" fill="#62616d" /><rect width="20" height="10" x="240" y="310" fill="#5d6061" /><rect width="10" height="10" x="260" y="310" fill="#58565c" /><rect width="50" height="10" x="270" y="310" fill="#62616d" /><rect width="10" height="10" x="140" y="240" fill="#ffef16" /><rect width="20" height="10" x="160" y="240" fill="#ffef16" /><rect width="30" height="10" x="150" y="250" fill="#ffef16" /><rect width="10" height="10" x="180" y="250" fill="#fe500c" /><rect width="30" height="10" x="150" y="260" fill="#ffef16" /><rect width="40" height="10" x="100" y="50" fill="#f3322c" /><rect width="40" height="10" x="180" y="50" fill="#f3322c" /><rect width="70" height="10" x="80" y="60" fill="#f3322c" /><rect width="70" height="10" x="170" y="60" fill="#f3322c" /><rect width="130" height="10" x="70" y="70" fill="#f3322c" /><rect width="20" height="10" x="200" y="70" fill="#ffffff" /><rect width="30" height="10" x="220" y="70" fill="#f3322c" /><rect width="140" height="10" x="60" y="80" fill="#f3322c" /><rect width="30" height="10" x="200" y="80" fill="#ffffff" /><rect width="30" height="10" x="230" y="80" fill="#f3322c" /><rect width="190" height="10" x="50" y="90" fill="#f3322c" /><rect width="10" height="10" x="240" y="90" fill="#ffffff" /><rect width="20" height="10" x="250" y="90" fill="#f3322c" /><rect width="240" height="10" x="40" y="100" fill="#f3322c" /><rect width="60" height="10" x="40" y="110" fill="#f3322c" /><rect width="120" height="10" x="100" y="110" fill="#ffffff" /><rect width="60" height="10" x="220" y="110" fill="#f3322c" /><rect width="50" height="10" x="30" y="120" fill="#f3322c" /><rect width="160" height="10" x="80" y="120" fill="#ffffff" /><rect width="50" height="10" x="240" y="120" fill="#f3322c" /><rect width="40" height="10" x="30" y="130" fill="#f3322c" /><rect width="180" height="10" x="70" y="130" fill="#ffffff" /><rect width="40" height="10" x="250" y="130" fill="#f3322c" /><rect width="30" height="10" x="30" y="140" fill="#f3322c" /><rect width="200" height="10" x="60" y="140" fill="#ffffff" /><rect width="30" height="10" x="260" y="140" fill="#f3322c" /><rect width="260" height="10" x="30" y="150" fill="#f3322c" /><rect width="240" height="10" x="40" y="160" fill="#f3322c" /><rect width="240" height="10" x="40" y="170" fill="#f3322c" /><rect width="220" height="10" x="50" y="180" fill="#f3322c" /><rect width="80" height="10" x="60" y="190" fill="#f3322c" /><rect width="40" height="10" x="140" y="190" fill="#ffffff" /><rect width="80" height="10" x="180" y="190" fill="#f3322c" /><rect width="160" height="10" x="80" y="200" fill="#f3322c" /><rect width="100" height="10" x="110" y="210" fill="#f3322c" /><rect width="60" height="10" x="100" y="110" fill="#000000" /><rect width="60" height="10" x="170" y="110" fill="#000000" /><rect width="30" height="10" x="100" y="120" fill="#000000" /><rect width="10" height="10" x="130" y="120" fill="#ff0e0e" /><rect width="20" height="10" x="140" y="120" fill="#000000" /><rect width="30" height="10" x="170" y="120" fill="#000000" /><rect width="10" height="10" x="200" y="120" fill="#ff0e0e" /><rect width="20" height="10" x="210" y="120" fill="#000000" /><rect width="160" height="10" x="70" y="130" fill="#000000" /><rect width="10" height="10" x="70" y="140" fill="#000000" /><rect width="10" height="10" x="100" y="140" fill="#000000" /><rect width="10" height="10" x="110" y="140" fill="#0adc4d" /><rect width="20" height="10" x="120" y="140" fill="#000000" /><rect width="10" height="10" x="140" y="140" fill="#1929f4" /><rect width="10" height="10" x="150" y="140" fill="#000000" /><rect width="10" height="10" x="170" y="140" fill="#000000" /><rect width="10" height="10" x="180" y="140" fill="#0adc4d" /><rect width="20" height="10" x="190" y="140" fill="#000000" /><rect width="10" height="10" x="210" y="140" fill="#1929f4" /><rect width="10" height="10" x="220" y="140" fill="#000000" /><rect width="10" height="10" x="70" y="150" fill="#000000" /><rect width="60" height="10" x="100" y="150" fill="#000000" /><rect width="60" height="10" x="170" y="150" fill="#000000" /><rect width="60" height="10" x="100" y="160" fill="#000000" /><rect width="60" height="10" x="170" y="160" fill="#000000" /></svg>