<svg width="320" height="320" viewBox="0 0 320 320" xmlns="http://www.w3.org/2000/svg" shape-rendering="crispEdges"><rect width="100%" height="100%" fill="#e1d7d5" /><rect width="140" height="10" x="90" y="210" fill="#f98f30" /><rect width="140" height="10" x="90" y="220" fill="#f98f30" /><rect width="140" height="10" x="90" y="230" fill="#f98f30" /><rect width="140" height="10" x="90" y="240" fill="#f98f30" /><rect width="20" height="10" x="90" y="250" fill="#f98f30" /><rect width="110" height="10" x="120" y="250" fill="#f98f30" /><rect width="20" height="10" x="90" y="260" fill="#f98f30" /><rect width="110" height="10" x="120" y="260" fill="#f98f30" /><rect width="20" height="10" x="90" y="270" fill="#f98f30" /><rect width="110" height="10" x="120" y="270" fill="#f98f30" /><rect width="20" height="10" x="90" y="280" fill="#f98f30" /><rect width="110" height="10" x="120" y="280" fill="#f98f30" /><rect width="20" height="10" x="90" y="290" fill="#f98f30" /><rect width="110" height="10" x="120" y="290" fill="#f98f30" /><rect width="20" height="10" x="90" y="300" fill="#f98f30" /><rect width="110" height="10" x="120" y="300" fill="#f98f30" /><rect width="20" height="10" x="90" y="310" fill="#f98f30" /><rect width="110" height="10" x="120" y="310" fill="#f98f30" /><rect width="30" height="10" x="90" y="210" fill="#b2958d" /><rect width="30" height="10" x="130" y="210" fill="#b2958d" /><rect width="30" height="10" x="170" y="210" fill="#b2958d" /><rect width="20" height="10" x="210" y="210" fill="#b2958d" /><rect width="10" height="10" x="90" y="230" fill="#b2958d" /><rect width="30" height="10" x="110" y="230" fill="#b2958d" /><rect width="30" height="10" x="150" y="230" fill="#b2958d" /><rect width="30" height="10" x="190" y="230" fill="#b2958d" /><rect width="10" height="10" x="100" y="240" fill="#b2958d" /><rect width="10" height="10" x="140" y="240" fill="#b2958d" /><rect width="10" height="10" x="180" y="240" fill="#b2958d" /><rect width="10" height="10" x="220" y="240" fill="#b2958d" /><rect width="10" height="10" x="90" y="250" fill="#b2958d" /><rect width="20" height="10" x="120" y="250" fill="#b2958d" /><rect width="30" height="10" x="150" y="250" fill="#b2958d" /><rect width="30" height="10" x="190" y="250" fill="#b2958d" /><rect width="20" height="10" x="90" y="270" fill="#b2958d" /><rect width="30" height="10" x="130" y="270" fill="#b2958d" /><rect width="30" height="10" x="170" y="270" fill="#b2958d" /><rect width="20" height="10" x="210" y="270" fill="#b2958d" /><rect width="10" height="10" x="120" y="280" fill="#b2958d" /><rect width="10" height="10" x="160" y="280" fill="#b2958d" /><rect width="10" height="10" x="200" y="280" fill="#b2958d" /><rect width="20" height="10" x="90" y="290" fill="#b2958d" /><rect width="30" height="10" x="130" y="290" fill="#b2958d" /><rect width="30" height="10" x="170" y="290" fill="#b2958d" /><rect width="20" height="10" x="210" y="290" fill="#b2958d" /><rect width="10" height="10" x="90" y="310" fill="#b2958d" /><rect width="20" height="10" x="120" y="310" fill="#b2958d" /><rect width="30" height="10" x="150" y="310" fill="#b2958d" /><rect width="30" height="10" x="190" y="310" fill="#b2958d" /><rect width="40" height="10" x="160" y="40" fill="#26b1f3" /><rect width="30" height="10" x="120" y="50" fill="#26b1f3" /><rect width="60" height="10" x="150" y="50" fill="#45faff" /><rect width="10" height="10" x="210" y="50" fill="#26b1f3" /><rect width="10" height="10" x="110" y="60" fill="#26b1f3" /><rect width="20" height="10" x="120" y="60" fill="#45faff" /><rect width="40" height="10" x="140" y="60" fill="#caeff9" /><rect width="40" height="10" x="180" y="60" fill="#45faff" /><rect width="10" height="10" x="220" y="60" fill="#26b1f3" /><rect width="10" height="10" x="90" y="70" fill="#26b1f3" /><rect width="30" height="10" x="100" y="70" fill="#45faff" /><rect width="20" height="10" x="130" y="70" fill="#caeff9" /><rect width="50" height="10" x="150" y="70" fill="#45faff" /><rect width="10" height="10" x="200" y="70" fill="#caeff9" /><rect width="20" height="10" x="210" y="70" fill="#45faff" /><rect width="10" height="10" x="230" y="70" fill="#26b1f3" /><rect width="20" height="10" x="70" y="80" fill="#26b1f3" /><rect width="30" height="10" x="90" y="80" fill="#45faff" /><rect width="30" height="10" x="120" y="80" fill="#caeff9" /><rect width="30" height="10" x="150" y="80" fill="#45faff" /><rect width="10" height="10" x="180" y="80" fill="#26b1f3" /><rect width="10" height="10" x="190" y="80" fill="#caeff9" /><rect width="10" height="10" x="200" y="80" fill="#45faff" /><rect width="10" height="10" x="210" y="80" fill="#caeff9" /><rect width="20" height="10" x="220" y="80" fill="#45faff" /><rect width="10" height="10" x="240" y="80" fill="#26b1f3" /><rect width="10" height="10" x="90" y="90" fill="#26b1f3" /><rect width="10" height="10" x="100" y="90" fill="#45faff" /><rect width="30" height="10" x="110" y="90" fill="#caeff9" /><rect width="20" height="10" x="140" y="90" fill="#45faff" /><rect width="20" height="10" x="160" y="90" fill="#26b1f3" /><rect width="50" height="10" x="180" y="90" fill="#caeff9" /><rect width="10" height="10" x="230" y="90" fill="#45faff" /><rect width="10" height="10" x="240" y="90" fill="#26b1f3" /><rect width="10" height="10" x="60" y="100" fill="#26b1f3" /><rect width="10" height="10" x="70" y="100" fill="#45faff" /><rect width="10" height="10" x="80" y="100" fill="#26b1f3" /><rect width="10" height="10" x="90" y="100" fill="#45faff" /><rect width="30" height="10" x="100" y="100" fill="#caeff9" /><rect width="10" height="10" x="130" y="100" fill="#45faff" /><rect width="20" height="10" x="140" y="100" fill="#26b1f3" /><rect width="20" height="10" x="160" y="100" fill="#00499c" /><rect width="20" height="10" x="180" y="100" fill="#45faff" /><rect width="30" height="10" x="200" y="100" fill="#caeff9" /><rect width="20" height="10" x="230" y="100" fill="#45faff" /><rect width="10" height="10" x="250" y="100" fill="#26b1f3" /><rect width="10" height="10" x="70" y="110" fill="#26b1f3" /><rect width="10" height="10" x="80" y="110" fill="#45faff" /><rect width="30" height="10" x="90" y="110" fill="#caeff9" /><rect width="40" height="10" x="120" y="110" fill="#26b1f3" /><rect width="10" height="10" x="160" y="110" fill="#00499c" /><rect width="70" height="10" x="170" y="110" fill="#caeff9" /><rect width="10" height="10" x="240" y="110" fill="#45faff" /><rect width="10" height="10" x="250" y="110" fill="#26b1f3" /><rect width="20" height="10" x="50" y="120" fill="#26b1f3" /><rect width="20" height="10" x="70" y="120" fill="#45faff" /><rect width="10" height="10" x="90" y="120" fill="#caeff9" /><rect width="10" height="10" x="100" y="120" fill="#45faff" /><rect width="30" height="10" x="110" y="120" fill="#26b1f3" /><rect width="10" height="10" x="140" y="120" fill="#00499c" /><rect width="100" height="10" x="150" y="120" fill="#caeff9" /><rect width="10" height="10" x="250" y="120" fill="#26b1f3" /><rect width="30" height="10" x="30" y="130" fill="#26b1f3" /><rect width="20" height="10" x="60" y="130" fill="#45faff" /><rect width="40" height="10" x="80" y="130" fill="#caeff9" /><rect width="10" height="10" x="120" y="130" fill="#45faff" /><rect width="30" height="10" x="130" y="130" fill="#00499c" /><rect width="10" height="10" x="160" y="130" fill="#26b1f3" /><rect width="10" height="10" x="170" y="130" fill="#45faff" /><rect width="70" height="10" x="180" y="130" fill="#caeff9" /><rect width="10" height="10" x="250" y="130" fill="#26b1f3" /><rect width="20" height="10" x="50" y="140" fill="#26b1f3" /><rect width="20" height="10" x="70" y="140" fill="#45faff" /><rect width="10" height="10" x="90" y="140" fill="#caeff9" /><rect width="10" height="10" x="100" y="140" fill="#45faff" /><rect width="30" height="10" x="110" y="140" fill="#26b1f3" /><rect width="10" height="10" x="140" y="140" fill="#00499c" /><rect width="100" height="10" x="150" y="140" fill="#caeff9" /><rect width="10" height="10" x="250" y="140" fill="#26b1f3" /><rect width="10" height="10" x="70" y="150" fill="#26b1f3" /><rect width="10" height="10" x="80" y="150" fill="#45faff" /><rect width="30" height="10" x="90" y="150" fill="#caeff9" /><rect width="40" height="10" x="120" y="150" fill="#26b1f3" /><rect width="10" height="10" x="160" y="150" fill="#00499c" /><rect width="70" height="10" x="170" y="150" fill="#caeff9" /><rect width="10" height="10" x="240" y="150" fill="#45faff" /><rect width="10" height="10" x="250" y="150" fill="#26b1f3" /><rect width="10" height="10" x="60" y="160" fill="#26b1f3" /><rect width="10" height="10" x="70" y="160" fill="#45faff" /><rect width="10" height="10" x="80" y="160" fill="#26b1f3" /><rect width="10" height="10" x="90" y="160" fill="#45faff" /><rect width="30" height="10" x="100" y="160" fill="#caeff9" /><rect width="10" height="10" x="130" y="160" fill="#45faff" /><rect width="20" height="10" x="140" y="160" fill="#26b1f3" /><rect width="20" height="10" x="160" y="160" fill="#00499c" /><rect width="20" height="10" x="180" y="160" fill="#45faff" /><rect width="30" height="10" x="200" y="160" fill="#caeff9" /><rect width="20" height="10" x="230" y="160" fill="#45faff" /><rect width="10" height="10" x="250" y="160" fill="#26b1f3" /><rect width="10" height="10" x="90" y="170" fill="#26b1f3" /><rect width="10" height="10" x="100" y="170" fill="#45faff" /><rect width="30" height="10" x="110" y="170" fill="#caeff9" /><rect width="20" height="10" x="140" y="170" fill="#45faff" /><rect width="20" height="10" x="160" y="170" fill="#26b1f3" /><rect width="50" height="10" x="180" y="170" fill="#caeff9" /><rect width="10" height="10" x="230" y="170" fill="#45faff" /><rect width="10" height="10" x="240" y="170" fill="#26b1f3" /><rect width="20" height="10" x="70" y="180" fill="#26b1f3" /><rect width="30" height="10" x="90" y="180" fill="#45faff" /><rect width="30" height="10" x="120" y="180" fill="#caeff9" /><rect width="30" height="10" x="150" y="180" fill="#45faff" /><rect width="10" height="10" x="180" y="180" fill="#26b1f3" /><rect width="10" height="10" x="190" y="180" fill="#caeff9" /><rect width="10" height="10" x="200" y="180" fill="#45faff" /><rect width="10" height="10" x="210" y="180" fill="#caeff9" /><rect width="20" height="10" x="220" y="180" fill="#45faff" /><rect width="10" height="10" x="240" y="180" fill="#26b1f3" /><rect width="10" height="10" x="90" y="190" fill="#26b1f3" /><rect width="30" height="10" x="100" y="190" fill="#45faff" /><rect width="20" height="10" x="130" y="190" fill="#caeff9" /><rect width="50" height="10" x="150" y="190" fill="#45faff" /><rect width="10" height="10" x="200" y="190" fill="#caeff9" /><rect width="20" height="10" x="210" y="190" fill="#45faff" /><rect width="10" height="10" x="230" y="190" fill="#26b1f3" /><rect width="10" height="10" x="110" y="200" fill="#26b1f3" /><rect width="20" height="10" x="120" y="200" fill="#45faff" /><rect width="40" height="10" x="140" y="200" fill="#caeff9" /><rect width="40" height="10" x="180" y="200" fill="#45faff" /><rect width="10" height="10" x="220" y="200" fill="#26b1f3" /><rect width="30" height="10" x="120" y="210" fill="#26b1f3" /><rect width="60" height="10" x="150" y="210" fill="#45faff" /><rect width="10" height="10" x="210" y="210" fill="#26b1f3" /><rect width="40" height="10" x="160" y="220" fill="#26b1f3" /><rect width="60" height="10" x="100" y="110" fill="#000000" /><rect width="60" height="10" x="170" y="110" fill="#000000" /><rect width="10" height="10" x="100" y="120" fill="#000000" /><rect width="20" height="10" x="110" y="120" fill="#ffffff" /><rect width="20" height="10" x="130" y="120" fill="#ff0e0e" /><rect width="10" height="10" x="150" y="120" fill="#000000" /><rect width="10" height="10" x="170" y="120" fill="#000000" /><rect width="20" height="10" x="180" y="120" fill="#ffffff" /><rect width="20" height="10" x="200" y="120" fill="#ff0e0e" /><rect width="10" height="10" x="220" y="120" fill="#000000" /><rect width="40" height="10" x="70" y="130" fill="#000000" /><rect width="20" height="10" x="110" y="130" fill="#ffffff" /><rect width="20" height="10" x="130" y="130" fill="#ff0e0e" /><rect width="30" height="10" x="150" y="130" fill="#000000" /><rect width="20" height="10" x="180" y="130" fill="#ffffff" /><rect width="20" height="10" x="200" y="130" fill="#ff0e0e" /><rect width="10" height="10" x="220" y="130" fill="#000000" /><rect width="10" height="10" x="70" y="140" fill="#000000" /><rect width="10" height="10" x="100" y="140" fill="#000000" /><rect width="20" height="10" x="110" y="140" fill="#ffffff" /><rect width="20" height="10" x="130" y="140" fill="#ff0e0e" /><rect width="10" height="10" x="150" y="140" fill="#000000" /><rect width="10" height="10" x="170" y="140" fill="#000000" /><rect width="20" height="10" x="180" y="140" fill="#ffffff" /><rect width="20" height="10" x="200" y="140" fill="#ff0e0e" /><rect width="10" height="10" x="220" y="140" fill="#000000" /><rect width="10" height="10" x="70" y="150" fill="#000000" /><rect width="10" height="10" x="100" y="150" fill="#000000" /><rect width="20" height="10" x="110" y="150" fill="#ffffff" /><rect width="20" height="10" x="130" y="150" fill="#ff0e0e" /><rect width="10" height="10" x="150" y="150" fill="#000000" /><rect width="10" height="10" x="170" y="150" fill="#000000" /><rect width="20" height="10" x="180" y="150" fill="#ffffff" /><rect width="20" height="10" x="200" y="150" fill="#ff0e0e" /><rect width="10" height="10" x="220" y="150" fill="#000000" /><rect width="60" height="10" x="100" y="160" fill="#000000" /><rect width="60" height="10" x="170" y="160" fill="#000000" /></svg>