<svg width="320" height="320" viewBox="0 0 320 320" xmlns="http://www.w3.org/2000/svg" shape-rendering="crispEdges"><rect width="100%" height="100%" fill="#d5d7e1" /><rect width="140" height="10" x="90" y="210" fill="#343235" /><rect width="140" height="10" x="90" y="220" fill="#343235" /><rect width="140" height="10" x="90" y="230" fill="#343235" /><rect width="140" height="10" x="90" y="240" fill="#343235" /><rect width="20" height="10" x="90" y="250" fill="#343235" /><rect width="110" height="10" x="120" y="250" fill="#343235" /><rect width="20" height="10" x="90" y="260" fill="#343235" /><rect width="110" height="10" x="120" y="260" fill="#343235" /><rect width="20" height="10" x="90" y="270" fill="#343235" /><rect width="110" height="10" x="120" y="270" fill="#343235" /><rect width="20" height="10" x="90" y="280" fill="#343235" /><rect width="110" height="10" x="120" y="280" fill="#343235" /><rect width="20" height="10" x="90" y="290" fill="#343235" /><rect width="110" height="10" x="120" y="290" fill="#343235" /><rect width="20" height="10" x="90" y="300" fill="#343235" /><rect width="110" height="10" x="120" y="300" fill="#343235" /><rect width="20" height="10" x="90" y="310" fill="#343235" /><rect width="110" height="10" x="120" y="310" fill="#343235" /><rect width="20" height="10" x="180" y="220" fill="#e9265c" /><rect width="10" height="10" x="150" y="230" fill="#e9265c" /><rect width="40" height="10" x="170" y="230" fill="#e9265c" /><rect width="40" height="10" x="170" y="240" fill="#e9265c" /><rect width="20" height="10" x="180" y="250" fill="#e9265c" /><rect width="10" height="10" x="130" y="260" fill="#e9265c" /><rect width="20" height="10" x="150" y="260" fill="#e9265c" /><rect width="20" height="10" x="150" y="270" fill="#e9265c" /><rect width="10" height="10" x="140" y="290" fill="#e9265c" /><rect width="10" height="10" x="130" y="60" fill="#27a463" /><rect width="10" height="10" x="150" y="60" fill="#27a463" /><rect width="10" height="10" x="180" y="60" fill="#27a463" /><rect width="40" height="10" x="140" y="70" fill="#27a463" /><rect width="40" height="10" x="110" y="80" fill="#c16923" /><rect width="10" height="10" x="150" y="80" fill="#27a463" /><rect width="50" height="10" x="160" y="80" fill="#c16923" /><rect width="140" height="10" x="90" y="90" fill="#c16923" /><rect width="10" height="10" x="90" y="100" fill="#c16923" /><rect width="60" height="10" x="100" y="100" fill="#d19a54" /><rect width="70" height="10" x="160" y="100" fill="#c16923" /><rect width="10" height="10" x="90" y="110" fill="#c16923" /><rect width="30" height="10" x="100" y="110" fill="#d19a54" /><rect width="10" height="10" x="130" y="110" fill="#fffdf2" /><rect width="20" height="10" x="140" y="110" fill="#d19a54" /><rect width="10" height="10" x="160" y="110" fill="#c16923" /><rect width="10" height="10" x="170" y="110" fill="#fffdf2" /><rect width="50" height="10" x="180" y="110" fill="#c16923" /><rect width="10" height="10" x="90" y="120" fill="#c16923" /><rect width="30" height="10" x="100" y="120" fill="#d19a54" /><rect width="10" height="10" x="130" y="120" fill="#000000" /><rect width="20" height="10" x="140" y="120" fill="#d19a54" /><rect width="10" height="10" x="160" y="120" fill="#c16923" /><rect width="10" height="10" x="170" y="120" fill="#000000" /><rect width="50" height="10" x="180" y="120" fill="#c16923" /><rect width="40" height="10" x="90" y="130" fill="#c16923" /><rect width="10" height="10" x="130" y="130" fill="#000000" /><rect width="30" height="10" x="140" y="130" fill="#c16923" /><rect width="10" height="10" x="170" y="130" fill="#000000" /><rect width="50" height="10" x="180" y="130" fill="#c16923" /><rect width="140" height="10" x="90" y="140" fill="#c16923" /><rect width="140" height="10" x="90" y="150" fill="#c16923" /><rect width="50" height="10" x="90" y="160" fill="#c16923" /><rect width="20" height="10" x="140" y="160" fill="#ff638d" /><rect width="10" height="10" x="160" y="160" fill="#ffffff" /><rect width="30" height="10" x="170" y="160" fill="#ff638d" /><rect width="30" height="10" x="200" y="160" fill="#c16923" /><rect width="50" height="10" x="90" y="170" fill="#c16923" /><rect width="10" height="10" x="140" y="170" fill="#ff638d" /><rect width="10" height="10" x="150" y="170" fill="#ffffff" /><rect width="40" height="10" x="160" y="170" fill="#ff638d" /><rect width="30" height="10" x="200" y="170" fill="#c16923" /><rect width="50" height="10" x="90" y="180" fill="#c16923" /><rect width="60" height="10" x="140" y="180" fill="#ff638d" /><rect width="30" height="10" x="200" y="180" fill="#c16923" /><rect width="40" height="10" x="90" y="190" fill="#e8705b" /><rect width="30" height="10" x="130" y="190" fill="#c16923" /><rect width="40" height="10" x="160" y="190" fill="#807f7e" /><rect width="10" height="10" x="200" y="190" fill="#c16923" /><rect width="40" height="10" x="210" y="190" fill="#e8705b" /><rect width="10" height="10" x="80" y="200" fill="#807f7e" /><rect width="10" height="10" x="90" y="200" fill="#c54e38" /><rect width="10" height="10" x="100" y="200" fill="#e8705b" /><rect width="10" height="10" x="110" y="200" fill="#c54e38" /><rect width="10" height="10" x="120" y="200" fill="#e8705b" /><rect width="10" height="10" x="130" y="200" fill="#1f1d29" /><rect width="20" height="10" x="140" y="200" fill="#5d6061" /><rect width="40" height="10" x="160" y="200" fill="#807f7e" /><rect width="10" height="10" x="200" y="200" fill="#62616d" /><rect width="10" height="10" x="210" y="200" fill="#e8705b" /><rect width="10" height="10" x="220" y="200" fill="#c54e38" /><rect width="10" height="10" x="230" y="200" fill="#e8705b" /><rect width="10" height="10" x="240" y="200" fill="#c54e38" /><rect width="20" height="10" x="80" y="210" fill="#807f7e" /><rect width="30" height="10" x="100" y="210" fill="#62616d" /><rect width="10" height="10" x="130" y="210" fill="#1f1d29" /><rect width="20" height="10" x="140" y="210" fill="#5d6061" /><rect width="40" height="10" x="160" y="210" fill="#807f7e" /><rect width="20" height="10" x="200" y="210" fill="#62616d" /><rect width="20" height="10" x="220" y="210" fill="#807f7e" /><rect width="60" height="10" x="100" y="110" fill="#f3322c" /><rect width="60" height="10" x="170" y="110" fill="#f3322c" /><rect width="10" height="10" x="100" y="120" fill="#f3322c" /><rect width="20" height="10" x="110" y="120" fill="#ffffff" /><rect width="20" height="10" x="130" y="120" fill="#000000" /><rect width="10" height="10" x="150" y="120" fill="#f3322c" /><rect width="10" height="10" x="170" y="120" fill="#f3322c" /><rect width="20" height="10" x="180" y="120" fill="#ffffff" /><rect width="20" height="10" x="200" y="120" fill="#000000" /><rect width="10" height="10" x="220" y="120" fill="#f3322c" /><rect width="40" height="10" x="70" y="130" fill="#f3322c" /><rect width="20" height="10" x="110" y="130" fill="#ffffff" /><rect width="20" height="10" x="130" y="130" fill="#000000" /><rect width="30" height="10" x="150" y="130" fill="#f3322c" /><rect width="20" height="10" x="180" y="130" fill="#ffffff" /><rect width="20" height="10" x="200" y="130" fill="#000000" /><rect width="10" height="10" x="220" y="130" fill="#f3322c" /><rect width="10" height="10" x="70" y="140" fill="#f3322c" /><rect width="10" height="10" x="100" y="140" fill="#f3322c" /><rect width="20" height="10" x="110" y="140" fill="#ffffff" /><rect width="20" height="10" x="130" y="140" fill="#000000" /><rect width="10" height="10" x="150" y="140" fill="#f3322c" /><rect width="10" height="10" x="170" y="140" fill="#f3322c" /><rect width="20" height="10" x="180" y="140" fill="#ffffff" /><rect width="20" height="10" x="200" y="140" fill="#000000" /><rect width="10" height="10" x="220" y="140" fill="#f3322c" /><rect width="10" height="10" x="70" y="150" fill="#f3322c" /><rect width="10" height="10" x="100" y="150" fill="#f3322c" /><rect width="20" height="10" x="110" y="150" fill="#ffffff" /><rect width="20" height="10" x="130" y="150" fill="#000000" /><rect width="10" height="10" x="150" y="150" fill="#f3322c" /><rect width="10" height="10" x="170" y="150" fill="#f3322c" /><rect width="20" height="10" x="180" y="150" fill="#ffffff" /><rect width="20" height="10" x="200" y="150" fill="#000000" /><rect width="10" height="10" x="220" y="150" fill="#f3322c" /><rect width="60" height="10" x="100" y="160" fill="#f3322c" /><rect width="60" height="10" x="170" y="160" fill="#f3322c" /></svg>