<svg width="320" height="320" viewBox="0 0 320 320" xmlns="http://www.w3.org/2000/svg" shape-rendering="crispEdges"><rect width="100%" height="100%" fill="#e1d7d5" /><rect width="140" height="10" x="90" y="210" fill="#068940" /><rect width="140" height="10" x="90" y="220" fill="#068940" /><rect width="140" height="10" x="90" y="230" fill="#068940" /><rect width="140" height="10" x="90" y="240" fill="#068940" /><rect width="20" height="10" x="90" y="250" fill="#068940" /><rect width="110" height="10" x="120" y="250" fill="#068940" /><rect width="20" height="10" x="90" y="260" fill="#068940" /><rect width="110" height="10" x="120" y="260" fill="#068940" /><rect width="20" height="10" x="90" y="270" fill="#068940" /><rect width="110" height="10" x="120" y="270" fill="#068940" /><rect width="20" height="10" x="90" y="280" fill="#068940" /><rect width="110" height="10" x="120" y="280" fill="#068940" /><rect width="20" height="10" x="90" y="290" fill="#068940" /><rect width="110" height="10" x="120" y="290" fill="#068940" /><rect width="20" height="10" x="90" y="300" fill="#068940" /><rect width="110" height="10" x="120" y="300" fill="#068940" /><rect width="20" height="10" x="90" y="310" fill="#068940" /><rect width="110" height="10" x="120" y="310" fill="#068940" /><rect width="10" height="10" x="160" y="240" fill="#34ac80" /><rect width="10" height="10" x="180" y="240" fill="#34ac80" /><rect width="10" height="10" x="170" y="250" fill="#34ac80" /><rect width="20" height="10" x="160" y="260" fill="#ff7216" /><rect width="20" height="10" x="150" y="270" fill="#ff7216" /><rect width="10" height="10" x="150" y="280" fill="#ff7216" /><rect width="10" height="10" x="140" y="290" fill="#ff7216" /><rect width="10" height="10" x="80" y="20" fill="#34ac80" /><rect width="10" height="10" x="90" y="30" fill="#34ac80" /><rect width="10" height="10" x="120" y="30" fill="#34ac80" /><rect width="10" height="10" x="180" y="30" fill="#34ac80" /><rect width="10" height="10" x="200" y="30" fill="#34ac80" /><rect width="10" height="10" x="220" y="30" fill="#34ac80" /><rect width="10" height="10" x="70" y="40" fill="#34ac80" /><rect width="10" height="10" x="90" y="40" fill="#34ac80" /><rect width="20" height="10" x="110" y="40" fill="#34ac80" /><rect width="20" height="10" x="140" y="40" fill="#34ac80" /><rect width="10" height="10" x="210" y="40" fill="#34ac80" /><rect width="10" height="10" x="240" y="40" fill="#34ac80" /><rect width="60" height="10" x="80" y="50" fill="#34ac80" /><rect width="50" height="10" x="150" y="50" fill="#34ac80" /><rect width="20" height="10" x="200" y="50" fill="#ff7216" /><rect width="20" height="10" x="220" y="50" fill="#34ac80" /><rect width="10" height="10" x="80" y="60" fill="#a38654" /><rect width="20" height="10" x="90" y="60" fill="#ff7216" /><rect width="10" height="10" x="110" y="60" fill="#34ac80" /><rect width="10" height="10" x="120" y="60" fill="#caa26a" /><rect width="10" height="10" x="130" y="60" fill="#34ac80" /><rect width="20" height="10" x="140" y="60" fill="#ff7216" /><rect width="10" height="10" x="160" y="60" fill="#caa26a" /><rect width="20" height="10" x="170" y="60" fill="#34ac80" /><rect width="10" height="10" x="190" y="60" fill="#ff7216" /><rect width="10" height="10" x="200" y="60" fill="#caa26a" /><rect width="40" height="10" x="210" y="60" fill="#34ac80" /><rect width="10" height="10" x="80" y="70" fill="#34ac80" /><rect width="10" height="10" x="90" y="70" fill="#a38654" /><rect width="10" height="10" x="100" y="70" fill="#34ac80" /><rect width="10" height="10" x="110" y="70" fill="#caa26a" /><rect width="20" height="10" x="120" y="70" fill="#34ac80" /><rect width="10" height="10" x="140" y="70" fill="#ff7216" /><rect width="20" height="10" x="150" y="70" fill="#34ac80" /><rect width="10" height="10" x="170" y="70" fill="#caa26a" /><rect width="30" height="10" x="180" y="70" fill="#34ac80" /><rect width="10" height="10" x="210" y="70" fill="#caa26a" /><rect width="10" height="10" x="220" y="70" fill="#34ac80" /><rect width="10" height="10" x="230" y="70" fill="#caa26a" /><rect width="10" height="10" x="240" y="70" fill="#34ac80" /><rect width="10" height="10" x="80" y="80" fill="#a38654" /><rect width="10" height="10" x="90" y="80" fill="#34ac80" /><rect width="10" height="10" x="100" y="80" fill="#caa26a" /><rect width="10" height="10" x="110" y="80" fill="#34ac80" /><rect width="10" height="10" x="120" y="80" fill="#caa26a" /><rect width="10" height="10" x="130" y="80" fill="#34ac80" /><rect width="30" height="10" x="140" y="80" fill="#caa26a" /><rect width="10" height="10" x="170" y="80" fill="#34ac80" /><rect width="40" height="10" x="180" y="80" fill="#caa26a" /><rect width="10" height="10" x="220" y="80" fill="#34ac80" /><rect width="10" height="10" x="230" y="80" fill="#caa26a" /><rect width="10" height="10" x="240" y="80" fill="#34ac80" /><rect width="20" height="10" x="80" y="90" fill="#a38654" /><rect width="40" height="10" x="100" y="90" fill="#caa26a" /><rect width="10" height="10" x="140" y="90" fill="#34ac80" /><rect width="10" height="10" x="150" y="90" fill="#caa26a" /><rect width="10" height="10" x="160" y="90" fill="#34ac80" /><rect width="40" height="10" x="170" y="90" fill="#caa26a" /><rect width="10" height="10" x="210" y="90" fill="#34ac80" /><rect width="20" height="10" x="220" y="90" fill="#caa26a" /><rect width="20" height="10" x="80" y="100" fill="#a38654" /><rect width="140" height="10" x="100" y="100" fill="#caa26a" /><rect width="20" height="10" x="80" y="110" fill="#a38654" /><rect width="140" height="10" x="100" y="110" fill="#caa26a" /><rect width="20" height="10" x="80" y="120" fill="#a38654" /><rect width="140" height="10" x="100" y="120" fill="#caa26a" /><rect width="20" height="10" x="80" y="130" fill="#a38654" /><rect width="140" height="10" x="100" y="130" fill="#caa26a" /><rect width="20" height="10" x="80" y="140" fill="#a38654" /><rect width="140" height="10" x="100" y="140" fill="#caa26a" /><rect width="20" height="10" x="80" y="150" fill="#a38654" /><rect width="140" height="10" x="100" y="150" fill="#caa26a" /><rect width="20" height="10" x="80" y="160" fill="#a38654" /><rect width="140" height="10" x="100" y="160" fill="#caa26a" /><rect width="20" height="10" x="80" y="170" fill="#a38654" /><rect width="140" height="10" x="100" y="170" fill="#caa26a" /><rect width="20" height="10" x="80" y="180" fill="#a38654" /><rect width="10" height="10" x="100" y="180" fill="#caa26a" /><rect width="40" height="10" x="110" y="180" fill="#34ac80" /><rect width="40" height="10" x="150" y="180" fill="#caa26a" /><rect width="30" height="10" x="190" y="180" fill="#ffffff" /><rect width="20" height="10" x="220" y="180" fill="#caa26a" /><rect width="20" height="10" x="80" y="190" fill="#a38654" /><rect width="20" height="10" x="100" y="190" fill="#caa26a" /><rect width="20" height="10" x="120" y="190" fill="#000000" /><rect width="100" height="10" x="140" y="190" fill="#caa26a" /><rect width="20" height="10" x="80" y="200" fill="#a38654" /><rect width="140" height="10" x="100" y="200" fill="#caa26a" /><rect width="10" height="10" x="90" y="210" fill="#a38654" /><rect width="140" height="10" x="100" y="210" fill="#caa26a" /><rect width="60" height="10" x="100" y="110" fill="#fe500c" /><rect width="60" height="10" x="170" y="110" fill="#fe500c" /><rect width="10" height="10" x="100" y="120" fill="#fe500c" /><rect width="20" height="10" x="110" y="120" fill="#ffffff" /><rect width="20" height="10" x="130" y="120" fill="#000000" /><rect width="10" height="10" x="150" y="120" fill="#fe500c" /><rect width="10" height="10" x="170" y="120" fill="#fe500c" /><rect width="20" height="10" x="180" y="120" fill="#ffffff" /><rect width="20" height="10" x="200" y="120" fill="#000000" /><rect width="10" height="10" x="220" y="120" fill="#fe500c" /><rect width="40" height="10" x="70" y="130" fill="#fe500c" /><rect width="20" height="10" x="110" y="130" fill="#ffffff" /><rect width="20" height="10" x="130" y="130" fill="#000000" /><rect width="30" height="10" x="150" y="130" fill="#fe500c" /><rect width="20" height="10" x="180" y="130" fill="#ffffff" /><rect width="20" height="10" x="200" y="130" fill="#000000" /><rect width="10" height="10" x="220" y="130" fill="#fe500c" /><rect width="10" height="10" x="70" y="140" fill="#fe500c" /><rect width="10" height="10" x="100" y="140" fill="#fe500c" /><rect width="20" height="10" x="110" y="140" fill="#ffffff" /><rect width="20" height="10" x="130" y="140" fill="#000000" /><rect width="10" height="10" x="150" y="140" fill="#fe500c" /><rect width="10" height="10" x="170" y="140" fill="#fe500c" /><rect width="20" height="10" x="180" y="140" fill="#ffffff" /><rect width="20" height="10" x="200" y="140" fill="#000000" /><rect width="10" height="10" x="220" y="140" fill="#fe500c" /><rect width="10" height="10" x="70" y="150" fill="#fe500c" /><rect width="10" height="10" x="100" y="150" fill="#fe500c" /><rect width="20" height="10" x="110" y="150" fill="#ffffff" /><rect width="20" height="10" x="130" y="150" fill="#000000" /><rect width="10" height="10" x="150" y="150" fill="#fe500c" /><rect width="10" height="10" x="170" y="150" fill="#fe500c" /><rect width="20" height="10" x="180" y="150" fill="#ffffff" /><rect width="20" height="10" x="200" y="150" fill="#000000" /><rect width="10" height="10" x="220" y="150" fill="#fe500c" /><rect width="60" height="10" x="100" y="160" fill="#fe500c" /><rect width="60" height="10" x="170" y="160" fill="#fe500c" /></svg>