<svg width="320" height="320" viewBox="0 0 320 320" xmlns="http://www.w3.org/2000/svg" shape-rendering="crispEdges"><rect width="100%" height="100%" fill="#e1d7d5" /><rect width="140" height="10" x="90" y="210" fill="#caeff9" /><rect width="140" height="10" x="90" y="220" fill="#caeff9" /><rect width="140" height="10" x="90" y="230" fill="#caeff9" /><rect width="140" height="10" x="90" y="240" fill="#caeff9" /><rect width="20" height="10" x="90" y="250" fill="#caeff9" /><rect width="110" height="10" x="120" y="250" fill="#caeff9" /><rect width="20" height="10" x="90" y="260" fill="#caeff9" /><rect width="110" height="10" x="120" y="260" fill="#caeff9" /><rect width="20" height="10" x="90" y="270" fill="#caeff9" /><rect width="110" height="10" x="120" y="270" fill="#caeff9" /><rect width="20" height="10" x="90" y="280" fill="#caeff9" /><rect width="110" height="10" x="120" y="280" fill="#caeff9" /><rect width="20" height="10" x="90" y="290" fill="#caeff9" /><rect width="110" height="10" x="120" y="290" fill="#caeff9" /><rect width="20" height="10" x="90" y="300" fill="#caeff9" /><rect width="110" height="10" x="120" y="300" fill="#caeff9" /><rect width="20" height="10" x="90" y="310" fill="#caeff9" /><rect width="110" height="10" x="120" y="310" fill="#caeff9" /><rect width="10" height="10" x="90" y="220" fill="#fff0be" /><rect width="10" height="10" x="110" y="220" fill="#fff0be" /><rect width="10" height="10" x="130" y="220" fill="#fff0be" /><rect width="10" height="10" x="150" y="220" fill="#fff0be" /><rect width="10" height="10" x="170" y="220" fill="#fff0be" /><rect width="10" height="10" x="190" y="220" fill="#fff0be" /><rect width="10" height="10" x="210" y="220" fill="#fff0be" /><rect width="10" height="10" x="100" y="240" fill="#fff0be" /><rect width="10" height="10" x="120" y="240" fill="#fff0be" /><rect width="10" height="10" x="140" y="240" fill="#fff0be" /><rect width="10" height="10" x="160" y="240" fill="#fff0be" /><rect width="10" height="10" x="180" y="240" fill="#fff0be" /><rect width="10" height="10" x="200" y="240" fill="#fff0be" /><rect width="10" height="10" x="220" y="240" fill="#fff0be" /><rect width="10" height="10" x="90" y="260" fill="#fff0be" /><rect width="10" height="10" x="130" y="260" fill="#fff0be" /><rect width="10" height="10" x="150" y="260" fill="#fff0be" /><rect width="10" height="10" x="170" y="260" fill="#fff0be" /><rect width="10" height="10" x="190" y="260" fill="#fff0be" /><rect width="10" height="10" x="210" y="260" fill="#fff0be" /><rect width="10" height="10" x="100" y="280" fill="#fff0be" /><rect width="10" height="10" x="120" y="280" fill="#fff0be" /><rect width="10" height="10" x="140" y="280" fill="#fff0be" /><rect width="10" height="10" x="160" y="280" fill="#fff0be" /><rect width="10" height="10" x="180" y="280" fill="#fff0be" /><rect width="10" height="10" x="200" y="280" fill="#fff0be" /><rect width="10" height="10" x="220" y="280" fill="#fff0be" /><rect width="10" height="10" x="90" y="300" fill="#fff0be" /><rect width="10" height="10" x="130" y="300" fill="#fff0be" /><rect width="10" height="10" x="150" y="300" fill="#fff0be" /><rect width="10" height="10" x="170" y="300" fill="#fff0be" /><rect width="10" height="10" x="190" y="300" fill="#fff0be" /><rect width="10" height="10" x="210" y="300" fill="#fff0be" /><rect width="20" height="10" x="110" y="20" fill="#ae6c0a" /><rect width="20" height="10" x="100" y="30" fill="#ae6c0a" /><rect width="20" height="10" x="120" y="30" fill="#d29607" /><rect width="20" height="10" x="110" y="40" fill="#ae6c0a" /><rect width="40" height="10" x="100" y="50" fill="#fffdf2" /><rect width="20" height="10" x="140" y="50" fill="#ae6c0a" /><rect width="20" height="10" x="160" y="50" fill="#d29607" /><rect width="60" height="10" x="90" y="60" fill="#fffdf2" /><rect width="20" height="10" x="180" y="60" fill="#d29607" /><rect width="60" height="10" x="90" y="70" fill="#fffdf2" /><rect width="10" height="10" x="200" y="70" fill="#d29607" /><rect width="80" height="10" x="80" y="80" fill="#fffdf2" /><rect width="10" height="10" x="210" y="80" fill="#d29607" /><rect width="100" height="10" x="70" y="90" fill="#fffdf2" /><rect width="10" height="10" x="210" y="90" fill="#d29607" /><rect width="120" height="10" x="60" y="100" fill="#fffdf2" /><rect width="10" height="10" x="210" y="100" fill="#d29607" /><rect width="30" height="10" x="60" y="110" fill="#fffdf2" /><rect width="40" height="10" x="100" y="110" fill="#fffdf2" /><rect width="30" height="10" x="150" y="110" fill="#fffdf2" /><rect width="10" height="10" x="210" y="110" fill="#d29607" /><rect width="20" height="10" x="70" y="120" fill="#fffdf2" /><rect width="20" height="10" x="110" y="120" fill="#fffdf2" /><rect width="20" height="10" x="150" y="120" fill="#fffdf2" /><rect width="10" height="10" x="210" y="120" fill="#d29607" /><rect width="10" height="10" x="200" y="130" fill="#d29607" /><rect width="20" height="10" x="180" y="140" fill="#d29607" /><rect width="20" height="10" x="160" y="150" fill="#d29607" /><rect width="10" height="10" x="160" y="160" fill="#ae6c0a" /><rect width="10" height="10" x="160" y="170" fill="#ae6c0a" /><rect width="10" height="10" x="120" y="180" fill="#ae6c0a" /><rect width="20" height="10" x="140" y="180" fill="#ae6c0a" /><rect width="20" height="10" x="160" y="180" fill="#d29607" /><rect width="10" height="10" x="180" y="180" fill="#ae6c0a" /><rect width="100" height="10" x="110" y="190" fill="#6e3206" /><rect width="100" height="10" x="110" y="200" fill="#903707" /><rect width="60" height="10" x="100" y="110" fill="#ec5b43" /><rect width="60" height="10" x="170" y="110" fill="#ec5b43" /><rect width="10" height="10" x="100" y="120" fill="#ec5b43" /><rect width="20" height="10" x="110" y="120" fill="#ffffff" /><rect width="20" height="10" x="130" y="120" fill="#000000" /><rect width="10" height="10" x="150" y="120" fill="#ec5b43" /><rect width="10" height="10" x="170" y="120" fill="#ec5b43" /><rect width="20" height="10" x="180" y="120" fill="#ffffff" /><rect width="20" height="10" x="200" y="120" fill="#000000" /><rect width="10" height="10" x="220" y="120" fill="#ec5b43" /><rect width="40" height="10" x="70" y="130" fill="#ec5b43" /><rect width="20" height="10" x="110" y="130" fill="#ffffff" /><rect width="20" height="10" x="130" y="130" fill="#000000" /><rect width="30" height="10" x="150" y="130" fill="#ec5b43" /><rect width="20" height="10" x="180" y="130" fill="#ffffff" /><rect width="20" height="10" x="200" y="130" fill="#000000" /><rect width="10" height="10" x="220" y="130" fill="#ec5b43" /><rect width="10" height="10" x="70" y="140" fill="#ec5b43" /><rect width="10" height="10" x="100" y="140" fill="#ec5b43" /><rect width="20" height="10" x="110" y="140" fill="#ffffff" /><rect width="20" height="10" x="130" y="140" fill="#000000" /><rect width="10" height="10" x="150" y="140" fill="#ec5b43" /><rect width="10" height="10" x="170" y="140" fill="#ec5b43" /><rect width="20" height="10" x="180" y="140" fill="#ffffff" /><rect width="20" height="10" x="200" y="140" fill="#000000" /><rect width="10" height="10" x="220" y="140" fill="#ec5b43" /><rect width="10" height="10" x="70" y="150" fill="#ec5b43" /><rect width="10" height="10" x="100" y="150" fill="#ec5b43" /><rect width="20" height="10" x="110" y="150" fill="#ffffff" /><rect width="20" height="10" x="130" y="150" fill="#000000" /><rect width="10" height="10" x="150" y="150" fill="#ec5b43" /><rect width="10" height="10" x="170" y="150" fill="#ec5b43" /><rect width="20" height="10" x="180" y="150" fill="#ffffff" /><rect width="20" height="10" x="200" y="150" fill="#000000" /><rect width="10" height="10" x="220" y="150" fill="#ec5b43" /><rect width="60" height="10" x="100" y="160" fill="#ec5b43" /><rect width="60" height="10" x="170" y="160" fill="#ec5b43" /></svg>