<svg width="320" height="320" viewBox="0 0 320 320" xmlns="http://www.w3.org/2000/svg" shape-rendering="crispEdges"><rect width="100%" height="100%" fill="#d5d7e1" /><rect width="140" height="10" x="90" y="210" fill="#caeff9" /><rect width="140" height="10" x="90" y="220" fill="#caeff9" /><rect width="140" height="10" x="90" y="230" fill="#caeff9" /><rect width="140" height="10" x="90" y="240" fill="#caeff9" /><rect width="20" height="10" x="90" y="250" fill="#caeff9" /><rect width="110" height="10" x="120" y="250" fill="#caeff9" /><rect width="20" height="10" x="90" y="260" fill="#caeff9" /><rect width="110" height="10" x="120" y="260" fill="#caeff9" /><rect width="20" height="10" x="90" y="270" fill="#caeff9" /><rect width="110" height="10" x="120" y="270" fill="#caeff9" /><rect width="20" height="10" x="90" y="280" fill="#caeff9" /><rect width="110" height="10" x="120" y="280" fill="#caeff9" /><rect width="20" height="10" x="90" y="290" fill="#caeff9" /><rect width="110" height="10" x="120" y="290" fill="#caeff9" /><rect width="20" height="10" x="90" y="300" fill="#caeff9" /><rect width="110" height="10" x="120" y="300" fill="#caeff9" /><rect width="20" height="10" x="90" y="310" fill="#caeff9" /><rect width="110" height="10" x="120" y="310" fill="#caeff9" /><rect width="50" height="10" x="140" y="240" fill="#62616d" /><rect width="10" height="10" x="130" y="250" fill="#62616d" /><rect width="10" height="10" x="150" y="250" fill="#62616d" /><rect width="10" height="10" x="170" y="250" fill="#62616d" /><rect width="10" height="10" x="150" y="260" fill="#62616d" /><rect width="10" height="10" x="170" y="260" fill="#62616d" /><rect width="10" height="10" x="150" y="270" fill="#62616d" /><rect width="10" height="10" x="180" y="270" fill="#62616d" /><rect width="40" height="10" x="140" y="20" fill="#76858b" /><rect width="100" height="10" x="110" y="30" fill="#343235" /><rect width="120" height="10" x="100" y="40" fill="#343235" /><rect width="10" height="10" x="110" y="50" fill="#9cb4b8" /><rect width="10" height="10" x="120" y="50" fill="#f9f4e6" /><rect width="10" height="10" x="130" y="50" fill="#9cb4b8" /><rect width="40" height="10" x="140" y="50" fill="#5d6061" /><rect width="30" height="10" x="180" y="50" fill="#9cb4b8" /><rect width="100" height="10" x="110" y="60" fill="#9cb4b8" /><rect width="30" height="10" x="210" y="60" fill="#343235" /><rect width="10" height="10" x="110" y="70" fill="#9cb4b8" /><rect width="10" height="10" x="120" y="70" fill="#f9f4e6" /><rect width="80" height="10" x="130" y="70" fill="#9cb4b8" /><rect width="20" height="10" x="220" y="70" fill="#343235" /><rect width="100" height="10" x="110" y="80" fill="#9cb4b8" /><rect width="20" height="10" x="220" y="80" fill="#343235" /><rect width="10" height="10" x="110" y="90" fill="#9cb4b8" /><rect width="10" height="10" x="120" y="90" fill="#f9f4e6" /><rect width="80" height="10" x="130" y="90" fill="#9cb4b8" /><rect width="20" height="10" x="220" y="90" fill="#343235" /><rect width="100" height="10" x="110" y="100" fill="#9cb4b8" /><rect width="20" height="10" x="220" y="100" fill="#343235" /><rect width="10" height="10" x="110" y="110" fill="#9cb4b8" /><rect width="10" height="10" x="120" y="110" fill="#f9f4e6" /><rect width="80" height="10" x="130" y="110" fill="#9cb4b8" /><rect width="30" height="10" x="210" y="110" fill="#343235" /><rect width="80" height="10" x="120" y="120" fill="#9cb4b8" /><rect width="20" height="10" x="120" y="130" fill="#9cb4b8" /><rect width="10" height="10" x="140" y="130" fill="#5d6061" /><rect width="10" height="10" x="150" y="130" fill="#9cb4b8" /><rect width="20" height="10" x="160" y="130" fill="#5d6061" /><rect width="20" height="10" x="180" y="130" fill="#9cb4b8" /><rect width="30" height="10" x="120" y="140" fill="#9cb4b8" /><rect width="20" height="10" x="150" y="140" fill="#5d6061" /><rect width="30" height="10" x="170" y="140" fill="#9cb4b8" /><rect width="60" height="10" x="130" y="150" fill="#343235" /><rect width="30" height="10" x="110" y="160" fill="#5d6061" /><rect width="70" height="10" x="140" y="160" fill="#76858b" /><rect width="120" height="10" x="100" y="170" fill="#343235" /><rect width="50" height="10" x="90" y="180" fill="#343235" /><rect width="80" height="10" x="140" y="180" fill="#76858b" /><rect width="10" height="10" x="220" y="180" fill="#343235" /><rect width="50" height="10" x="90" y="190" fill="#343235" /><rect width="10" height="10" x="140" y="190" fill="#76858b" /><rect width="10" height="10" x="150" y="190" fill="#f9f4e6" /><rect width="20" height="10" x="160" y="190" fill="#343235" /><rect width="10" height="10" x="180" y="190" fill="#f9f4e6" /><rect width="20" height="10" x="190" y="190" fill="#343235" /><rect width="10" height="10" x="210" y="190" fill="#f9f4e6" /><rect width="10" height="10" x="220" y="190" fill="#343235" /><rect width="50" height="10" x="90" y="200" fill="#343235" /><rect width="80" height="10" x="140" y="200" fill="#76858b" /><rect width="10" height="10" x="220" y="200" fill="#343235" /><rect width="60" height="10" x="100" y="110" fill="#8dd122" /><rect width="60" height="10" x="170" y="110" fill="#8dd122" /><rect width="10" height="10" x="100" y="120" fill="#8dd122" /><rect width="20" height="10" x="110" y="120" fill="#ffffff" /><rect width="20" height="10" x="130" y="120" fill="#000000" /><rect width="10" height="10" x="150" y="120" fill="#8dd122" /><rect width="10" height="10" x="170" y="120" fill="#8dd122" /><rect width="20" height="10" x="180" y="120" fill="#ffffff" /><rect width="20" height="10" x="200" y="120" fill="#000000" /><rect width="10" height="10" x="220" y="120" fill="#8dd122" /><rect width="40" height="10" x="70" y="130" fill="#8dd122" /><rect width="20" height="10" x="110" y="130" fill="#ffffff" /><rect width="20" height="10" x="130" y="130" fill="#000000" /><rect width="30" height="10" x="150" y="130" fill="#8dd122" /><rect width="20" height="10" x="180" y="130" fill="#ffffff" /><rect width="20" height="10" x="200" y="130" fill="#000000" /><rect width="10" height="10" x="220" y="130" fill="#8dd122" /><rect width="10" height="10" x="70" y="140" fill="#8dd122" /><rect width="10" height="10" x="100" y="140" fill="#8dd122" /><rect width="20" height="10" x="110" y="140" fill="#ffffff" /><rect width="20" height="10" x="130" y="140" fill="#000000" /><rect width="10" height="10" x="150" y="140" fill="#8dd122" /><rect width="10" height="10" x="170" y="140" fill="#8dd122" /><rect width="20" height="10" x="180" y="140" fill="#ffffff" /><rect width="20" height="10" x="200" y="140" fill="#000000" /><rect width="10" height="10" x="220" y="140" fill="#8dd122" /><rect width="10" height="10" x="70" y="150" fill="#8dd122" /><rect width="10" height="10" x="100" y="150" fill="#8dd122" /><rect width="20" height="10" x="110" y="150" fill="#ffffff" /><rect width="20" height="10" x="130" y="150" fill="#000000" /><rect width="10" height="10" x="150" y="150" fill="#8dd122" /><rect width="10" height="10" x="170" y="150" fill="#8dd122" /><rect width="20" height="10" x="180" y="150" fill="#ffffff" /><rect width="20" height="10" x="200" y="150" fill="#000000" /><rect width="10" height="10" x="220" y="150" fill="#8dd122" /><rect width="60" height="10" x="100" y="160" fill="#8dd122" /><rect width="60" height="10" x="170" y="160" fill="#8dd122" /></svg>