<svg width="320" height="320" viewBox="0 0 320 320" xmlns="http://www.w3.org/2000/svg" shape-rendering="crispEdges"><rect width="100%" height="100%" fill="#e1d7d5" /><rect width="140" height="10" x="90" y="210" fill="#b9185c" /><rect width="140" height="10" x="90" y="220" fill="#b9185c" /><rect width="140" height="10" x="90" y="230" fill="#b9185c" /><rect width="140" height="10" x="90" y="240" fill="#b9185c" /><rect width="20" height="10" x="90" y="250" fill="#b9185c" /><rect width="110" height="10" x="120" y="250" fill="#b9185c" /><rect width="20" height="10" x="90" y="260" fill="#b9185c" /><rect width="110" height="10" x="120" y="260" fill="#b9185c" /><rect width="20" height="10" x="90" y="270" fill="#b9185c" /><rect width="110" height="10" x="120" y="270" fill="#b9185c" /><rect width="20" height="10" x="90" y="280" fill="#b9185c" /><rect width="110" height="10" x="120" y="280" fill="#b9185c" /><rect width="20" height="10" x="90" y="290" fill="#b9185c" /><rect width="110" height="10" x="120" y="290" fill="#b9185c" /><rect width="20" height="10" x="90" y="300" fill="#b9185c" /><rect width="110" height="10" x="120" y="300" fill="#b9185c" /><rect width="20" height="10" x="90" y="310" fill="#b9185c" /><rect width="110" height="10" x="120" y="310" fill="#b9185c" /><rect width="20" height="10" x="140" y="240" fill="#d8dadf" /><rect width="20" height="10" x="170" y="240" fill="#d8dadf" /><rect width="40" height="10" x="130" y="250" fill="#d8dadf" /><rect width="20" height="10" x="180" y="250" fill="#d8dadf" /><rect width="30" height="10" x="130" y="260" fill="#d8dadf" /><rect width="30" height="10" x="170" y="260" fill="#d8dadf" /><rect width="30" height="10" x="140" y="270" fill="#d8dadf" /><rect width="10" height="10" x="180" y="270" fill="#d8dadf" /><rect width="10" height="10" x="150" y="280" fill="#d8dadf" /><rect width="10" height="10" x="170" y="280" fill="#d8dadf" /><rect width="10" height="10" x="160" y="290" fill="#d8dadf" /><rect width="10" height="10" x="110" y="20" fill="#1f1d29" /><rect width="10" height="10" x="180" y="20" fill="#1f1d29" /><rect width="20" height="10" x="100" y="30" fill="#1f1d29" /><rect width="20" height="10" x="180" y="30" fill="#1f1d29" /><rect width="30" height="10" x="100" y="40" fill="#1f1d29" /><rect width="30" height="10" x="170" y="40" fill="#1f1d29" /><rect width="20" height="10" x="90" y="50" fill="#1f1d29" /><rect width="10" height="10" x="110" y="50" fill="#903707" /><rect width="10" height="10" x="120" y="50" fill="#1f1d29" /><rect width="10" height="10" x="170" y="50" fill="#1f1d29" /><rect width="10" height="10" x="180" y="50" fill="#903707" /><rect width="20" height="10" x="190" y="50" fill="#1f1d29" /><rect width="10" height="10" x="90" y="60" fill="#1f1d29" /><rect width="20" height="10" x="100" y="60" fill="#903707" /><rect width="10" height="10" x="120" y="60" fill="#1f1d29" /><rect width="10" height="10" x="170" y="60" fill="#1f1d29" /><rect width="20" height="10" x="180" y="60" fill="#903707" /><rect width="10" height="10" x="200" y="60" fill="#1f1d29" /><rect width="10" height="10" x="90" y="70" fill="#1f1d29" /><rect width="20" height="10" x="100" y="70" fill="#903707" /><rect width="10" height="10" x="120" y="70" fill="#1f1d29" /><rect width="10" height="10" x="170" y="70" fill="#1f1d29" /><rect width="20" height="10" x="180" y="70" fill="#903707" /><rect width="10" height="10" x="200" y="70" fill="#1f1d29" /><rect width="120" height="10" x="90" y="80" fill="#1f1d29" /><rect width="130" height="10" x="90" y="90" fill="#1f1d29" /><rect width="30" height="10" x="90" y="100" fill="#1f1d29" /><rect width="20" height="10" x="120" y="100" fill="#903707" /><rect width="40" height="10" x="140" y="100" fill="#1f1d29" /><rect width="20" height="10" x="180" y="100" fill="#903707" /><rect width="20" height="10" x="200" y="100" fill="#1f1d29" /><rect width="130" height="10" x="90" y="110" fill="#1f1d29" /><rect width="130" height="10" x="90" y="120" fill="#1f1d29" /><rect width="130" height="10" x="90" y="130" fill="#1f1d29" /><rect width="130" height="10" x="90" y="140" fill="#1f1d29" /><rect width="130" height="10" x="90" y="150" fill="#1f1d29" /><rect width="130" height="10" x="90" y="160" fill="#1f1d29" /><rect width="30" height="10" x="240" y="160" fill="#000000" /><rect width="90" height="10" x="90" y="170" fill="#1f1d29" /><rect width="60" height="10" x="180" y="170" fill="#903707" /><rect width="30" height="10" x="240" y="170" fill="#000000" /><rect width="10" height="10" x="270" y="170" fill="#903707" /><rect width="70" height="10" x="90" y="180" fill="#1f1d29" /><rect width="90" height="10" x="160" y="180" fill="#903707" /><rect width="10" height="10" x="250" y="180" fill="#000000" /><rect width="20" height="10" x="260" y="180" fill="#903707" /><rect width="50" height="10" x="90" y="190" fill="#1f1d29" /><rect width="40" height="10" x="140" y="190" fill="#903707" /><rect width="90" height="10" x="180" y="190" fill="#000000" /><rect width="10" height="10" x="270" y="190" fill="#903707" /><rect width="30" height="10" x="90" y="200" fill="#1f1d29" /><rect width="150" height="10" x="120" y="200" fill="#903707" /><rect width="60" height="10" x="100" y="110" fill="#d19a54" /><rect width="60" height="10" x="170" y="110" fill="#d19a54" /><rect width="10" height="10" x="100" y="120" fill="#d19a54" /><rect width="20" height="10" x="110" y="120" fill="#ffffff" /><rect width="20" height="10" x="130" y="120" fill="#000000" /><rect width="10" height="10" x="150" y="120" fill="#d19a54" /><rect width="10" height="10" x="170" y="120" fill="#d19a54" /><rect width="20" height="10" x="180" y="120" fill="#ffffff" /><rect width="20" height="10" x="200" y="120" fill="#000000" /><rect width="10" height="10" x="220" y="120" fill="#d19a54" /><rect width="40" height="10" x="70" y="130" fill="#d19a54" /><rect width="20" height="10" x="110" y="130" fill="#ffffff" /><rect width="20" height="10" x="130" y="130" fill="#000000" /><rect width="30" height="10" x="150" y="130" fill="#d19a54" /><rect width="20" height="10" x="180" y="130" fill="#ffffff" /><rect width="20" height="10" x="200" y="130" fill="#000000" /><rect width="10" height="10" x="220" y="130" fill="#d19a54" /><rect width="10" height="10" x="70" y="140" fill="#d19a54" /><rect width="10" height="10" x="100" y="140" fill="#d19a54" /><rect width="20" height="10" x="110" y="140" fill="#ffffff" /><rect width="20" height="10" x="130" y="140" fill="#000000" /><rect width="10" height="10" x="150" y="140" fill="#d19a54" /><rect width="10" height="10" x="170" y="140" fill="#d19a54" /><rect width="20" height="10" x="180" y="140" fill="#ffffff" /><rect width="20" height="10" x="200" y="140" fill="#000000" /><rect width="10" height="10" x="220" y="140" fill="#d19a54" /><rect width="10" height="10" x="70" y="150" fill="#d19a54" /><rect width="10" height="10" x="100" y="150" fill="#d19a54" /><rect width="20" height="10" x="110" y="150" fill="#ffffff" /><rect width="20" height="10" x="130" y="150" fill="#000000" /><rect width="10" height="10" x="150" y="150" fill="#d19a54" /><rect width="10" height="10" x="170" y="150" fill="#d19a54" /><rect width="20" height="10" x="180" y="150" fill="#ffffff" /><rect width="20" height="10" x="200" y="150" fill="#000000" /><rect width="10" height="10" x="220" y="150" fill="#d19a54" /><rect width="60" height="10" x="100" y="160" fill="#d19a54" /><rect width="60" height="10" x="170" y="160" fill="#d19a54" /></svg>