<svg width="320" height="320" viewBox="0 0 320 320" xmlns="http://www.w3.org/2000/svg" shape-rendering="crispEdges"><rect width="100%" height="100%" fill="#d5d7e1" /><rect width="140" height="10" x="90" y="210" fill="#f98f30" /><rect width="140" height="10" x="90" y="220" fill="#f98f30" /><rect width="140" height="10" x="90" y="230" fill="#f98f30" /><rect width="140" height="10" x="90" y="240" fill="#f98f30" /><rect width="20" height="10" x="90" y="250" fill="#f98f30" /><rect width="110" height="10" x="120" y="250" fill="#f98f30" /><rect width="20" height="10" x="90" y="260" fill="#f98f30" /><rect width="110" height="10" x="120" y="260" fill="#f98f30" /><rect width="20" height="10" x="90" y="270" fill="#f98f30" /><rect width="110" height="10" x="120" y="270" fill="#f98f30" /><rect width="20" height="10" x="90" y="280" fill="#f98f30" /><rect width="110" height="10" x="120" y="280" fill="#f98f30" /><rect width="20" height="10" x="90" y="290" fill="#f98f30" /><rect width="110" height="10" x="120" y="290" fill="#f98f30" /><rect width="20" height="10" x="90" y="300" fill="#f98f30" /><rect width="110" height="10" x="120" y="300" fill="#f98f30" /><rect width="20" height="10" x="90" y="310" fill="#f98f30" /><rect width="110" height="10" x="120" y="310" fill="#f98f30" /><rect width="140" height="10" x="90" y="210" fill="#caeff9" /><rect width="140" height="10" x="90" y="220" fill="#caeff9" /><rect width="140" height="10" x="90" y="230" fill="#caeff9" /><rect width="140" height="10" x="90" y="240" fill="#caeff9" /><rect width="20" height="10" x="90" y="250" fill="#caeff9" /><rect width="110" height="10" x="120" y="250" fill="#caeff9" /><rect width="20" height="10" x="90" y="260" fill="#caeff9" /><rect width="110" height="10" x="120" y="260" fill="#caeff9" /><rect width="20" height="10" x="90" y="270" fill="#caeff9" /><rect width="110" height="10" x="120" y="270" fill="#caeff9" /><rect width="20" height="10" x="90" y="280" fill="#caeff9" /><rect width="110" height="10" x="120" y="280" fill="#caeff9" /><rect width="20" height="10" x="90" y="290" fill="#caeff9" /><rect width="110" height="10" x="120" y="290" fill="#caeff9" /><rect width="20" height="10" x="90" y="300" fill="#caeff9" /><rect width="110" height="10" x="120" y="300" fill="#caeff9" /><rect width="20" height="10" x="90" y="310" fill="#caeff9" /><rect width="110" height="10" x="120" y="310" fill="#caeff9" /><rect width="120" height="10" x="90" y="70" fill="#555353" /><rect width="30" height="10" x="80" y="80" fill="#555353" /><rect width="10" height="10" x="110" y="80" fill="#757576" /><rect width="100" height="10" x="120" y="80" fill="#555353" /><rect width="20" height="10" x="80" y="90" fill="#555353" /><rect width="10" height="10" x="100" y="90" fill="#757576" /><rect width="120" height="10" x="110" y="90" fill="#555353" /><rect width="150" height="10" x="80" y="100" fill="#555353" /><rect width="150" height="10" x="80" y="110" fill="#555353" /><rect width="10" height="10" x="240" y="110" fill="#a3baed" /><rect width="10" height="10" x="260" y="110" fill="#67b1e3" /><rect width="20" height="10" x="60" y="120" fill="#a3baed" /><rect width="20" height="10" x="80" y="120" fill="#555353" /><rect width="20" height="10" x="100" y="120" fill="#71bde4" /><rect width="10" height="10" x="120" y="120" fill="#67b1e3" /><rect width="20" height="10" x="130" y="120" fill="#71bde4" /><rect width="20" height="10" x="150" y="120" fill="#a3baed" /><rect width="10" height="10" x="170" y="120" fill="#67b1e3" /><rect width="20" height="10" x="180" y="120" fill="#a3baed" /><rect width="20" height="10" x="200" y="120" fill="#71bde4" /><rect width="10" height="10" x="220" y="120" fill="#555353" /><rect width="20" height="10" x="230" y="120" fill="#a3baed" /><rect width="10" height="10" x="260" y="120" fill="#67b1e3" /><rect width="10" height="10" x="70" y="130" fill="#a3baed" /><rect width="10" height="10" x="80" y="130" fill="#555353" /><rect width="20" height="10" x="90" y="130" fill="#a3baed" /><rect width="10" height="10" x="110" y="130" fill="#71bde4" /><rect width="10" height="10" x="120" y="130" fill="#67b1e3" /><rect width="20" height="10" x="130" y="130" fill="#71bde4" /><rect width="50" height="10" x="150" y="130" fill="#a3baed" /><rect width="20" height="10" x="200" y="130" fill="#71bde4" /><rect width="20" height="10" x="220" y="130" fill="#a3baed" /><rect width="10" height="10" x="240" y="130" fill="#67b1e3" /><rect width="10" height="10" x="250" y="130" fill="#a3baed" /><rect width="10" height="10" x="260" y="130" fill="#67b1e3" /><rect width="50" height="10" x="60" y="140" fill="#a3baed" /><rect width="70" height="10" x="110" y="140" fill="#71bde4" /><rect width="30" height="10" x="180" y="140" fill="#a3baed" /><rect width="10" height="10" x="210" y="140" fill="#71bde4" /><rect width="10" height="10" x="220" y="140" fill="#67b1e3" /><rect width="30" height="10" x="230" y="140" fill="#a3baed" /><rect width="10" height="10" x="50" y="150" fill="#67b1e3" /><rect width="30" height="10" x="70" y="150" fill="#a3baed" /><rect width="10" height="10" x="100" y="150" fill="#67b1e3" /><rect width="80" height="10" x="110" y="150" fill="#71bde4" /><rect width="20" height="10" x="190" y="150" fill="#a3baed" /><rect width="10" height="10" x="210" y="150" fill="#71bde4" /><rect width="10" height="10" x="220" y="150" fill="#67b1e3" /><rect width="20" height="10" x="230" y="150" fill="#a3baed" /><rect width="10" height="10" x="50" y="160" fill="#67b1e3" /><rect width="10" height="10" x="80" y="160" fill="#a3baed" /><rect width="10" height="10" x="90" y="160" fill="#67b1e3" /><rect width="100" height="10" x="100" y="160" fill="#71bde4" /><rect width="10" height="10" x="200" y="160" fill="#a3baed" /><rect width="10" height="10" x="210" y="160" fill="#67b1e3" /><rect width="20" height="10" x="220" y="160" fill="#a3baed" /><rect width="30" height="10" x="70" y="170" fill="#a3baed" /><rect width="10" height="10" x="100" y="170" fill="#71bde4" /><rect width="10" height="10" x="110" y="170" fill="#a3baed" /><rect width="10" height="10" x="120" y="170" fill="#67b1e3" /><rect width="60" height="10" x="130" y="170" fill="#71bde4" /><rect width="10" height="10" x="190" y="170" fill="#a3baed" /><rect width="10" height="10" x="200" y="170" fill="#67b1e3" /><rect width="30" height="10" x="210" y="170" fill="#a3baed" /><rect width="10" height="10" x="240" y="170" fill="#67b1e3" /><rect width="10" height="10" x="80" y="180" fill="#67b1e3" /><rect width="10" height="10" x="90" y="180" fill="#71bde4" /><rect width="20" height="10" x="100" y="180" fill="#a3baed" /><rect width="10" height="10" x="120" y="180" fill="#67b1e3" /><rect width="10" height="10" x="130" y="180" fill="#71bde4" /><rect width="40" height="10" x="140" y="180" fill="#000000" /><rect width="10" height="10" x="180" y="180" fill="#71bde4" /><rect width="40" height="10" x="190" y="180" fill="#a3baed" /><rect width="20" height="10" x="240" y="180" fill="#67b1e3" /><rect width="40" height="10" x="70" y="190" fill="#a3baed" /><rect width="10" height="10" x="110" y="190" fill="#67b1e3" /><rect width="70" height="10" x="120" y="190" fill="#71bde4" /><rect width="20" height="10" x="190" y="190" fill="#a3baed" /><rect width="10" height="10" x="210" y="190" fill="#67b1e3" /><rect width="20" height="10" x="220" y="190" fill="#a3baed" /><rect width="10" height="10" x="70" y="200" fill="#a3baed" /><rect width="10" height="10" x="80" y="200" fill="#555353" /><rect width="20" height="10" x="90" y="200" fill="#67b1e3" /><rect width="70" height="10" x="110" y="200" fill="#71bde4" /><rect width="20" height="10" x="180" y="200" fill="#a3baed" /><rect width="10" height="10" x="200" y="200" fill="#67b1e3" /><rect width="10" height="10" x="210" y="200" fill="#a3baed" /><rect width="10" height="10" x="220" y="200" fill="#67b1e3" /><rect width="20" height="10" x="80" y="210" fill="#555353" /><rect width="10" height="10" x="100" y="210" fill="#67b1e3" /><rect width="10" height="10" x="120" y="210" fill="#71bde4" /><rect width="30" height="10" x="140" y="210" fill="#71bde4" /><rect width="10" height="10" x="170" y="210" fill="#a3baed" /><rect width="10" height="10" x="180" y="210" fill="#67b1e3" /><rect width="10" height="10" x="190" y="210" fill="#a3baed" /><rect width="10" height="10" x="210" y="210" fill="#a3baed" /><rect width="10" height="10" x="220" y="210" fill="#555353" /><rect width="20" height="10" x="80" y="220" fill="#555353" /><rect width="10" height="10" x="140" y="220" fill="#71bde4" /><rect width="10" height="10" x="150" y="220" fill="#67b1e3" /><rect width="10" height="10" x="170" y="220" fill="#67b1e3" /><rect width="20" height="10" x="210" y="220" fill="#555353" /><rect width="20" height="10" x="80" y="230" fill="#555353" /><rect width="20" height="10" x="210" y="230" fill="#555353" /><rect width="20" height="10" x="80" y="240" fill="#555353" /><rect width="20" height="10" x="210" y="240" fill="#555353" /><rect width="20" height="10" x="80" y="250" fill="#555353" /><rect width="20" height="10" x="210" y="250" fill="#555353" /><rect width="60" height="10" x="100" y="110" fill="#f3322c" /><rect width="60" height="10" x="170" y="110" fill="#f3322c" /><rect width="10" height="10" x="100" y="120" fill="#f3322c" /><rect width="20" height="10" x="110" y="120" fill="#ffffff" /><rect width="20" height="10" x="130" y="120" fill="#000000" /><rect width="10" height="10" x="150" y="120" fill="#f3322c" /><rect width="10" height="10" x="170" y="120" fill="#f3322c" /><rect width="20" height="10" x="180" y="120" fill="#ffffff" /><rect width="20" height="10" x="200" y="120" fill="#000000" /><rect width="10" height="10" x="220" y="120" fill="#f3322c" /><rect width="40" height="10" x="70" y="130" fill="#f3322c" /><rect width="20" height="10" x="110" y="130" fill="#ffffff" /><rect width="20" height="10" x="130" y="130" fill="#000000" /><rect width="30" height="10" x="150" y="130" fill="#f3322c" /><rect width="20" height="10" x="180" y="130" fill="#ffffff" /><rect width="20" height="10" x="200" y="130" fill="#000000" /><rect width="10" height="10" x="220" y="130" fill="#f3322c" /><rect width="10" height="10" x="70" y="140" fill="#f3322c" /><rect width="10" height="10" x="100" y="140" fill="#f3322c" /><rect width="20" height="10" x="110" y="140" fill="#ffffff" /><rect width="20" height="10" x="130" y="140" fill="#000000" /><rect width="10" height="10" x="150" y="140" fill="#f3322c" /><rect width="10" height="10" x="170" y="140" fill="#f3322c" /><rect width="20" height="10" x="180" y="140" fill="#ffffff" /><rect width="20" height="10" x="200" y="140" fill="#000000" /><rect width="10" height="10" x="220" y="140" fill="#f3322c" /><rect width="10" height="10" x="70" y="150" fill="#f3322c" /><rect width="10" height="10" x="100" y="150" fill="#f3322c" /><rect width="20" height="10" x="110" y="150" fill="#ffffff" /><rect width="20" height="10" x="130" y="150" fill="#000000" /><rect width="10" height="10" x="150" y="150" fill="#f3322c" /><rect width="10" height="10" x="170" y="150" fill="#f3322c" /><rect width="20" height="10" x="180" y="150" fill="#ffffff" /><rect width="20" height="10" x="200" y="150" fill="#000000" /><rect width="10" height="10" x="220" y="150" fill="#f3322c" /><rect width="60" height="10" x="100" y="160" fill="#f3322c" /><rect width="60" height="10" x="170" y="160" fill="#f3322c" /></svg>