<svg width="320" height="320" viewBox="0 0 320 320" xmlns="http://www.w3.org/2000/svg" shape-rendering="crispEdges"><rect width="100%" height="100%" fill="#d5d7e1" /><rect width="140" height="10" x="90" y="210" fill="#b9185c" /><rect width="140" height="10" x="90" y="220" fill="#b9185c" /><rect width="140" height="10" x="90" y="230" fill="#b9185c" /><rect width="140" height="10" x="90" y="240" fill="#b9185c" /><rect width="20" height="10" x="90" y="250" fill="#b9185c" /><rect width="110" height="10" x="120" y="250" fill="#b9185c" /><rect width="20" height="10" x="90" y="260" fill="#b9185c" /><rect width="110" height="10" x="120" y="260" fill="#b9185c" /><rect width="20" height="10" x="90" y="270" fill="#b9185c" /><rect width="110" height="10" x="120" y="270" fill="#b9185c" /><rect width="20" height="10" x="90" y="280" fill="#b9185c" /><rect width="110" height="10" x="120" y="280" fill="#b9185c" /><rect width="20" height="10" x="90" y="290" fill="#b9185c" /><rect width="110" height="10" x="120" y="290" fill="#b9185c" /><rect width="20" height="10" x="90" y="300" fill="#b9185c" /><rect width="110" height="10" x="120" y="300" fill="#b9185c" /><rect width="20" height="10" x="90" y="310" fill="#b9185c" /><rect width="110" height="10" x="120" y="310" fill="#b9185c" /><rect width="140" height="10" x="90" y="210" fill="#1929f4" /><rect width="140" height="10" x="90" y="220" fill="#1929f4" /><rect width="140" height="10" x="90" y="230" fill="#1929f4" /><rect width="20" height="10" x="90" y="250" fill="#ff82ad" /><rect width="110" height="10" x="120" y="250" fill="#ff82ad" /><rect width="20" height="10" x="90" y="270" fill="#fff449" /><rect width="110" height="10" x="120" y="270" fill="#fff449" /><rect width="10" height="10" x="80" y="70" fill="#aaa6a4" /><rect width="10" height="10" x="170" y="70" fill="#abaaa8" /><rect width="10" height="10" x="250" y="70" fill="#abaaa8" /><rect width="20" height="10" x="80" y="80" fill="#aaa6a4" /><rect width="10" height="10" x="100" y="80" fill="#a19c9a" /><rect width="10" height="10" x="110" y="80" fill="#abaaa8" /><rect width="10" height="10" x="150" y="80" fill="#abaaa8" /><rect width="10" height="10" x="170" y="80" fill="#abaaa8" /><rect width="40" height="10" x="210" y="80" fill="#abaaa8" /><rect width="20" height="10" x="70" y="90" fill="#abaaa8" /><rect width="10" height="10" x="90" y="90" fill="#e8e8e2" /><rect width="10" height="10" x="100" y="90" fill="#e5e5de" /><rect width="110" height="10" x="110" y="90" fill="#abaaa8" /><rect width="20" height="10" x="220" y="90" fill="#e5e5de" /><rect width="20" height="10" x="240" y="90" fill="#abaaa8" /><rect width="20" height="10" x="60" y="100" fill="#abaaa8" /><rect width="10" height="10" x="80" y="100" fill="#e5e5de" /><rect width="10" height="10" x="90" y="100" fill="#fffdf2" /><rect width="10" height="10" x="100" y="100" fill="#e8e8e2" /><rect width="110" height="10" x="110" y="100" fill="#abaaa8" /><rect width="10" height="10" x="220" y="100" fill="#f9f4e6" /><rect width="10" height="10" x="230" y="100" fill="#fffdf2" /><rect width="10" height="10" x="240" y="100" fill="#e8e8e2" /><rect width="10" height="10" x="250" y="100" fill="#abaaa8" /><rect width="10" height="10" x="70" y="110" fill="#a19c9a" /><rect width="20" height="10" x="80" y="110" fill="#f9f5e9" /><rect width="130" height="10" x="100" y="110" fill="#abaaa8" /><rect width="20" height="10" x="230" y="110" fill="#f9f5e9" /><rect width="10" height="10" x="250" y="110" fill="#aaa6a4" /><rect width="10" height="10" x="60" y="120" fill="#abaaa8" /><rect width="10" height="10" x="70" y="120" fill="#a19c9a" /><rect width="20" height="10" x="80" y="120" fill="#e8e8e2" /><rect width="10" height="10" x="100" y="120" fill="#abaaa8" /><rect width="20" height="10" x="110" y="120" fill="#f9f5e9" /><rect width="70" height="10" x="130" y="120" fill="#abaaa8" /><rect width="20" height="10" x="200" y="120" fill="#f9f5e9" /><rect width="10" height="10" x="220" y="120" fill="#abaaa8" /><rect width="20" height="10" x="230" y="120" fill="#e8e8e2" /><rect width="10" height="10" x="250" y="120" fill="#abaaa8" /><rect width="10" height="10" x="260" y="120" fill="#aaa6a4" /><rect width="30" height="10" x="80" y="130" fill="#abaaa8" /><rect width="20" height="10" x="110" y="130" fill="#f9f5e9" /><rect width="70" height="10" x="130" y="130" fill="#abaaa8" /><rect width="20" height="10" x="200" y="130" fill="#f9f5e9" /><rect width="30" height="10" x="220" y="130" fill="#abaaa8" /><rect width="30" height="10" x="80" y="140" fill="#abaaa8" /><rect width="20" height="10" x="110" y="140" fill="#f9f5e9" /><rect width="70" height="10" x="130" y="140" fill="#abaaa8" /><rect width="20" height="10" x="200" y="140" fill="#f9f5e9" /><rect width="30" height="10" x="220" y="140" fill="#abaaa8" /><rect width="10" height="10" x="80" y="150" fill="#aaa6a4" /><rect width="20" height="10" x="90" y="150" fill="#abaaa8" /><rect width="20" height="10" x="110" y="150" fill="#f9f5e9" /><rect width="10" height="10" x="130" y="150" fill="#abaaa8" /><rect width="50" height="10" x="140" y="150" fill="#000000" /><rect width="10" height="10" x="190" y="150" fill="#abaaa8" /><rect width="20" height="10" x="200" y="150" fill="#f9f5e9" /><rect width="20" height="10" x="220" y="150" fill="#abaaa8" /><rect width="10" height="10" x="240" y="150" fill="#aaa6a4" /><rect width="20" height="10" x="90" y="160" fill="#abaaa8" /><rect width="20" height="10" x="110" y="160" fill="#f9f5e9" /><rect width="10" height="10" x="130" y="160" fill="#abaaa8" /><rect width="50" height="10" x="140" y="160" fill="#000000" /><rect width="10" height="10" x="190" y="160" fill="#abaaa8" /><rect width="20" height="10" x="200" y="160" fill="#f9f5e9" /><rect width="20" height="10" x="220" y="160" fill="#abaaa8" /><rect width="30" height="10" x="90" y="170" fill="#abaaa8" /><rect width="10" height="10" x="120" y="170" fill="#cbc1bc" /><rect width="10" height="10" x="130" y="170" fill="#abaaa8" /><rect width="50" height="10" x="140" y="170" fill="#000000" /><rect width="10" height="10" x="190" y="170" fill="#abaaa8" /><rect width="10" height="10" x="200" y="170" fill="#cbc1bc" /><rect width="30" height="10" x="210" y="170" fill="#abaaa8" /><rect width="10" height="10" x="90" y="180" fill="#aaa6a4" /><rect width="20" height="10" x="100" y="180" fill="#abaaa8" /><rect width="20" height="10" x="120" y="180" fill="#f9f5e9" /><rect width="50" height="10" x="140" y="180" fill="#000000" /><rect width="20" height="10" x="190" y="180" fill="#f9f5e9" /><rect width="30" height="10" x="210" y="180" fill="#abaaa8" /><rect width="30" height="10" x="90" y="190" fill="#abaaa8" /><rect width="10" height="10" x="120" y="190" fill="#f9f5e9" /><rect width="10" height="10" x="130" y="190" fill="#f9f4e6" /><rect width="10" height="10" x="140" y="190" fill="#f9f5e9" /><rect width="30" height="10" x="150" y="190" fill="#000000" /><rect width="10" height="10" x="180" y="190" fill="#f9f5e9" /><rect width="10" height="10" x="190" y="190" fill="#f9f4e6" /><rect width="10" height="10" x="200" y="190" fill="#f9f5e9" /><rect width="30" height="10" x="210" y="190" fill="#abaaa8" /><rect width="30" height="10" x="100" y="200" fill="#abaaa8" /><rect width="60" height="10" x="130" y="200" fill="#f9f5e9" /><rect width="10" height="10" x="190" y="200" fill="#e8e8e2" /><rect width="30" height="10" x="200" y="200" fill="#abaaa8" /><rect width="70" height="10" x="130" y="210" fill="#f9f5e9" /><rect width="10" height="10" x="140" y="220" fill="#f9f5e9" /><rect width="30" height="10" x="160" y="220" fill="#f9f5e9" /><rect width="10" height="10" x="160" y="230" fill="#f9f5e9" /><rect width="10" height="10" x="180" y="230" fill="#f9f5e9" /><rect width="60" height="10" x="100" y="110" fill="#2b83f6" /><rect width="60" height="10" x="170" y="110" fill="#2b83f6" /><rect width="10" height="10" x="100" y="120" fill="#2b83f6" /><rect width="20" height="10" x="110" y="120" fill="#ffffff" /><rect width="20" height="10" x="130" y="120" fill="#000000" /><rect width="10" height="10" x="150" y="120" fill="#2b83f6" /><rect width="10" height="10" x="170" y="120" fill="#2b83f6" /><rect width="20" height="10" x="180" y="120" fill="#ffffff" /><rect width="20" height="10" x="200" y="120" fill="#000000" /><rect width="10" height="10" x="220" y="120" fill="#2b83f6" /><rect width="40" height="10" x="70" y="130" fill="#2b83f6" /><rect width="20" height="10" x="110" y="130" fill="#ffffff" /><rect width="20" height="10" x="130" y="130" fill="#000000" /><rect width="30" height="10" x="150" y="130" fill="#2b83f6" /><rect width="20" height="10" x="180" y="130" fill="#ffffff" /><rect width="20" height="10" x="200" y="130" fill="#000000" /><rect width="10" height="10" x="220" y="130" fill="#2b83f6" /><rect width="10" height="10" x="70" y="140" fill="#2b83f6" /><rect width="10" height="10" x="100" y="140" fill="#2b83f6" /><rect width="20" height="10" x="110" y="140" fill="#ffffff" /><rect width="20" height="10" x="130" y="140" fill="#000000" /><rect width="10" height="10" x="150" y="140" fill="#2b83f6" /><rect width="10" height="10" x="170" y="140" fill="#2b83f6" /><rect width="20" height="10" x="180" y="140" fill="#ffffff" /><rect width="20" height="10" x="200" y="140" fill="#000000" /><rect width="10" height="10" x="220" y="140" fill="#2b83f6" /><rect width="10" height="10" x="70" y="150" fill="#2b83f6" /><rect width="10" height="10" x="100" y="150" fill="#2b83f6" /><rect width="20" height="10" x="110" y="150" fill="#ffffff" /><rect width="20" height="10" x="130" y="150" fill="#000000" /><rect width="10" height="10" x="150" y="150" fill="#2b83f6" /><rect width="10" height="10" x="170" y="150" fill="#2b83f6" /><rect width="20" height="10" x="180" y="150" fill="#ffffff" /><rect width="20" height="10" x="200" y="150" fill="#000000" /><rect width="10" height="10" x="220" y="150" fill="#2b83f6" /><rect width="60" height="10" x="100" y="160" fill="#2b83f6" /><rect width="60" height="10" x="170" y="160" fill="#2b83f6" /></svg>